<svg width="30" height="30" viewBox="0 0 30 30" fill="none" xmlns="http://www.w3.org/2000/svg">
<path d="M10.8047 5.74219H10.9688H11.1328C11.2422 5.75781 11.6094 5.82031 12.2344 5.92969C12.875 6.03906 13.2891 6.11719 13.4766 6.16406C13.6797 6.19531 14.0547 6.26563 14.6016 6.375C15.1484 6.48437 15.5625 6.58594 15.8438 6.67969C16.1406 6.77344 16.5156 6.89062 16.9688 7.03125C17.4375 7.17188 17.8672 7.32812 18.2578 7.5C18.6641 7.67188 19.0625 7.86719 19.4531 8.08594C19.7344 8.22656 19.875 8.45312 19.875 8.76562C19.875 9.0625 19.75 9.28125 19.5 9.42188C18.4531 10.0625 16.7031 10.8984 14.25 11.9297C14.7344 12.0547 15.0703 12.1484 15.2578 12.2109C16.0078 12.4453 16.8672 12.7422 17.8359 13.1016C17.8672 13.1172 18.1797 13.2578 18.7734 13.5234C18.8203 13.5391 18.8906 13.5703 18.9844 13.6172C19.0938 13.6484 19.1875 13.6875 19.2656 13.7344C19.3438 13.7812 19.4219 13.8438 19.5 13.9219C19.6562 14.0781 19.7344 14.2656 19.7344 14.4844C19.7344 14.8281 19.5703 15.0703 19.2422 15.2109C18.4297 15.5547 16.6484 16.2266 13.8984 17.2266C16.2422 17.7891 17.8594 18.25 18.75 18.6094C19.0625 18.75 19.2188 18.9922 19.2188 19.3359C19.2188 19.5703 19.125 19.7656 18.9375 19.9219C16.8125 21.6875 14.25 23.2422 11.25 24.5859C11.1562 24.6328 11.0391 24.6562 10.8984 24.6562C10.6797 24.6562 10.4922 24.5781 10.3359 24.4219C10.1953 24.2656 10.125 24.0859 10.125 23.8828V23.8359C10.2344 18.1172 10.2578 12.3516 10.1953 6.53906V6.51562C10.1953 6.34375 10.2578 6.17969 10.3828 6.02344C10.5078 5.86719 10.6484 5.77344 10.8047 5.74219ZM11.7656 7.47656C11.7812 7.97656 11.7812 8.6875 11.7656 9.60938C11.75 10.5156 11.7422 11.1172 11.7422 11.4141C13.0078 10.9609 14.7891 10.1094 17.0859 8.85938C15.5234 8.26562 13.75 7.80469 11.7656 7.47656ZM12.0234 12.9844C12.0078 12.9844 11.9922 12.9922 11.9766 13.0078C11.9609 13.0234 11.9453 13.0312 11.9297 13.0312C11.8984 13.0469 11.8359 13.0547 11.7422 13.0547V16.3594C13.4453 15.7656 15.1562 15.1172 16.875 14.4141C16.3438 14.2109 15.6562 13.9766 14.8125 13.7109C13.7812 13.3828 13.0078 13.1641 12.4922 13.0547C12.2734 13.0078 12.1172 12.9844 12.0234 12.9844ZM11.7422 18.2109C11.7422 18.6953 11.7344 19.4219 11.7188 20.3906C11.7188 21.3438 11.7109 22.0625 11.6953 22.5469C13.4922 21.6719 15.1406 20.6953 16.6406 19.6172C14.5 18.8828 12.8672 18.4141 11.7422 18.2109Z" fill="white"/>
</svg>
