<svg width="30" height="30" viewBox="0 0 30 30" fill="none" xmlns="http://www.w3.org/2000/svg">
<path d="M12.6914 26.3672C11.9727 26.0078 11.3867 25.4609 10.9336 24.7266C10.4961 23.9922 10.2305 23.2266 10.1367 22.4297C10.043 21.6328 10.0742 20.8516 10.2305 20.0859C10.3867 19.3047 10.6523 18.6641 11.0273 18.1641C11.1055 19.0391 11.3477 19.8438 11.7539 20.5781C12.1602 21.2969 12.6992 21.8672 13.3711 22.2891C14.0586 22.7109 14.8164 22.9766 15.6445 23.0859C16.4727 23.1953 17.4023 23.0547 18.4336 22.6641C19.4805 22.2578 20.5195 21.6094 21.5508 20.7188C22.3945 19.9844 23.0117 19.1172 23.4023 18.1172C23.8086 17.1016 23.9023 15.9766 23.6836 14.7422C23.4648 13.5078 22.9023 12.3125 21.9961 11.1562C22.1523 11.0938 22.3008 10.9922 22.4414 10.8516C22.582 10.6953 22.6914 10.6016 22.7695 10.5703C22.8477 10.5234 23.0273 10.5547 23.3086 10.6641C23.6055 10.7578 24.0352 10.9844 24.5977 11.3438C24.957 11.5781 25.2305 11.8047 25.418 12.0234C25.6211 12.2266 25.7461 12.4453 25.793 12.6797C25.8398 12.8984 25.8555 13.1016 25.8398 13.2891C25.8242 13.4766 25.8008 13.7266 25.7695 14.0391C25.7383 14.3359 25.7383 14.6172 25.7695 14.8828C25.8477 15.8984 25.6133 17.0625 25.0664 18.375C24.5352 19.6875 23.707 20.8438 22.582 21.8438C20.0977 24.0469 16.7852 24.8125 12.6445 24.1406C12.5508 24.4531 12.5664 25.1953 12.6914 26.3672ZM6.43359 24.4688C5.68359 24.1562 5.09766 23.5781 4.67578 22.7344C4.25391 21.875 4.08984 20.9922 4.18359 20.0859C4.27734 19.1641 4.62891 18.4844 5.23828 18.0469C5.44141 17.8906 7.85547 15.7188 12.4805 11.5312C17.1211 7.34375 19.6758 5.08594 20.1445 4.75781C20.5664 4.44531 20.957 4.21875 21.3164 4.07812C21.6914 3.92188 21.9805 3.85937 22.1836 3.89062C22.3867 3.92188 22.5195 4.02344 22.582 4.19531C22.6445 4.35156 22.5898 4.59375 22.418 4.92188C22.2461 5.25 21.9727 5.625 21.5977 6.04688C21.3164 6.34375 20.4961 7.07031 19.1367 8.22656C17.793 9.36719 16.3867 10.5625 14.918 11.8125C13.4648 13.0469 11.957 14.4297 10.3945 15.9609C8.84766 17.4766 7.72266 18.7422 7.01953 19.7578C6.72266 20.1797 6.51953 20.6875 6.41016 21.2812C6.30078 21.8594 6.25391 22.3828 6.26953 22.8516C6.28516 23.3047 6.33984 23.8438 6.43359 24.4688ZM15.2461 19.7344C15.5117 19.7969 15.7461 19.9375 15.9492 20.1562C16.1523 20.3594 16.2773 20.5703 16.3242 20.7891C16.3867 21.0078 16.3164 21.2109 16.1133 21.3984C15.9102 21.5703 15.5664 21.6641 15.082 21.6797C14.2852 21.6953 13.7695 21.4375 13.5352 20.9062C13.3477 20.4844 13.4414 20.1406 13.8164 19.875C14.1602 19.6406 14.6367 19.5938 15.2461 19.7344ZM11.6836 4.21875C11.9336 4.10938 12.5039 4.29688 13.3945 4.78125C14.5352 5.42188 15.8945 6.61719 17.4727 8.36719C19.0508 10.1172 20.332 11.7578 21.3164 13.2891C21.5508 13.6641 21.5898 13.9922 21.4336 14.2734C21.2773 14.5547 20.9102 14.5312 20.332 14.2031C18.9883 13.3594 18.1445 13.0078 17.8008 13.1484C17.6289 13.2109 17.4727 13.6172 17.332 14.3672C17.207 15.1172 17.0898 15.9531 16.9805 16.875C16.8711 17.7812 16.6758 18.7031 16.3945 19.6406C16.1133 20.5781 15.7695 21.2266 15.3633 21.5859C15.1914 21.4609 15.0898 21.2891 15.0586 21.0703C15.0273 20.8516 15.0352 20.6484 15.082 20.4609C15.1445 20.2734 15.168 20.1016 15.1523 19.9453C15.1523 19.7891 15.0898 19.6953 14.9648 19.6641C15.168 18.6953 15.2773 17.2812 15.293 15.4219C15.3242 13.5469 15.2383 11.8047 15.0352 10.1953C14.9883 9.86719 14.8164 9.50781 14.5195 9.11719C14.2383 8.71094 13.8711 8.25 13.418 7.73438C12.9648 7.21875 12.6211 6.78125 12.3867 6.42188C11.5273 5.125 11.293 4.39063 11.6836 4.21875Z" fill="white"/>
</svg>
