<svg width="30" height="30" viewBox="0 0 30 30" fill="none" xmlns="http://www.w3.org/2000/svg">
<path d="M14.6016 24.1875L15.6797 24.9141C16.2422 24.0078 16.4297 23.3047 16.2422 22.8047C16.0703 22.3047 15.6406 21.9766 14.9531 21.8203C14.2656 21.6641 13.5625 21.6016 12.8438 21.6328C12.1406 21.6641 11.5391 21.7578 11.0391 21.9141C11.8516 20.5391 12.8438 19.4141 14.0156 18.5391L13.2422 17.4609C12.3828 18.1172 11.5547 18.9531 10.7578 19.9688C9.96094 20.9688 9.42969 21.9766 9.16406 22.9922C9.07031 23.3672 9.10156 23.6172 9.25781 23.7422C9.42969 23.8516 9.625 23.875 9.84375 23.8125L10.1484 23.7188C11.4141 22.9844 12.6016 22.6406 13.7109 22.6875C14.5234 22.7344 14.9141 23 14.8828 23.4844C14.8672 23.6875 14.7734 23.9219 14.6016 24.1875ZM17.8359 9.11719C17.6641 8.99219 17.4219 8.80469 17.1094 8.55469C16.8125 8.30469 16.6172 8.14844 16.5234 8.08594C16.2422 7.89844 15.9766 7.89062 15.7266 8.0625C14.3047 9.09375 13.3359 10.4766 12.8203 12.2109C12.3047 13.9453 12.2344 15.5547 12.6094 17.0391C12.7969 17.7734 13.2188 18.4531 13.875 19.0781C14.5469 19.6875 15.2969 20.1719 16.125 20.5312C16.9688 20.8906 17.7109 21.1719 18.3516 21.375C19.0078 21.5781 19.5547 21.7109 19.9922 21.7734C20.1484 21.8047 20.3047 21.7656 20.4609 21.6562C21.3359 21.0469 21.875 20.4375 22.0781 19.8281L20.8125 19.4297C20.7656 19.6328 20.4688 19.9609 19.9219 20.4141C18.75 20.1641 17.5078 19.6875 16.1953 18.9844C14.8828 18.2812 14.1172 17.5156 13.8984 16.6875C13.6016 15.5312 13.6484 14.2578 14.0391 12.8672C14.4453 11.4766 15.1406 10.3359 16.125 9.44531C18.625 11.5547 20.2969 11.3438 21.1406 8.8125C21.4844 7.79687 21.3594 6.85937 20.7656 6C20.2812 5.29688 19.7188 4.99219 19.0781 5.08594C18.4375 5.17969 17.9531 5.70313 17.625 6.65625C17.3281 7.5 17.3672 8.27344 17.7422 8.97656L17.8359 9.11719ZM18.9844 15.1406L19.4766 13.8984C18.8984 13.6797 18.4688 13.5234 18.1875 13.4297C17.9219 13.3203 17.4922 13.1797 16.8984 13.0078C16.3203 12.8203 15.8516 12.7031 15.4922 12.6562C15.1484 12.6094 14.6953 12.5781 14.1328 12.5625C13.5859 12.5312 13.1016 12.5781 12.6797 12.7031C12.2734 12.8125 11.8281 12.9922 11.3438 13.2422C10.8594 13.4922 10.3984 13.8125 9.96094 14.2031C9.82031 13.4688 9.66406 12.9297 9.49219 12.5859C9.32031 12.2422 9.04688 11.9375 8.67188 11.6719L7.92188 12.7734C8.17188 12.9453 8.375 13.3281 8.53125 13.9219C8.70312 14.5 8.75781 15.1562 8.69531 15.8906C8.67969 16.2031 8.76562 16.3984 8.95312 16.4766C9.15625 16.5391 9.35938 16.5312 9.5625 16.4531L9.89062 16.3125C10.3125 15.7188 10.7344 15.2266 11.1562 14.8359C11.5938 14.4453 12.0938 14.1953 12.6562 14.0859C13.2344 13.9609 13.6875 13.8672 14.0156 13.8047C14.3438 13.7266 14.875 13.7891 15.6094 13.9922C16.3594 14.1953 16.8359 14.3359 17.0391 14.4141C17.2578 14.4766 17.7969 14.6797 18.6562 15.0234C18.7969 15.0703 18.9062 15.1094 18.9844 15.1406Z" fill="white"/>
</svg>
