<svg width="30" height="30" viewBox="0 0 30 30" fill="none" xmlns="http://www.w3.org/2000/svg">
<path d="M20.2031 17.2969C20.9375 16.2188 21.4766 15.2031 21.8203 14.25C22.1641 13.2812 22.3281 12.4766 22.3125 11.8359C22.2969 11.1953 22.1875 10.6172 21.9844 10.1016C21.7812 9.58594 21.5469 9.19531 21.2812 8.92969C21.0312 8.66406 20.7812 8.47656 20.5312 8.36719C19.7812 8.00781 19.4219 7.53906 19.4531 6.96094C19.4844 6.36719 19.7656 5.96094 20.2969 5.74219C20.8281 5.50781 21.3516 5.50781 21.8672 5.74219C22.5234 6.14844 23.0703 6.73438 23.5078 7.5C23.9453 8.25 24.2109 9.08594 24.3047 10.0078C24.4141 10.9297 24.3672 11.8516 24.1641 12.7734C23.9766 13.6953 23.5391 14.5625 22.8516 15.375C22.1641 16.1875 21.2812 16.8281 20.2031 17.2969ZM8.25 7.125C6.73438 12.1875 6.95312 15.3125 8.90625 16.5C9.625 16.9219 9.94531 17.3984 9.86719 17.9297C9.78906 18.4609 9.48438 18.7969 8.95312 18.9375C8.42188 19.0625 7.91406 18.9766 7.42969 18.6797C6.82031 18.1797 6.35156 17.3906 6.02344 16.3125C5.71094 15.2344 5.57031 14.1172 5.60156 12.9609C5.64844 11.8047 5.89844 10.6719 6.35156 9.5625C6.80469 8.45312 7.4375 7.64062 8.25 7.125ZM10.6406 21.5859C11.4375 20.2266 12.5625 19.3438 14.0156 18.9375C15.4688 18.5156 16.8516 18.7266 18.1641 19.5703C18.7109 19.9297 18.8828 20.3438 18.6797 20.8125C18.4922 21.2188 18.1562 21.4062 17.6719 21.375C17.3906 21.3594 17.1094 21.25 16.8281 21.0469C16.3594 20.6875 15.75 20.4922 15 20.4609C14.25 20.4297 13.5078 20.5234 12.7734 20.7422C12.0391 20.9453 11.3281 21.2266 10.6406 21.5859ZM18.6797 10.2656C18.2266 11.3125 17.4844 12.1172 16.4531 12.6797C15.4219 13.2422 14.3047 13.4766 13.1016 13.3828C11.8984 13.2734 10.8281 12.8438 9.89062 12.0938C9.35938 11.6719 9.24219 11.2344 9.53906 10.7812C9.77344 10.3906 10.1406 10.2266 10.6406 10.2891C10.9844 10.3516 11.2891 10.5469 11.5547 10.875C11.9922 11.4375 12.6016 11.7734 13.3828 11.8828C14.1641 11.9922 15.0078 11.9062 15.9141 11.625C16.8203 11.3281 17.7422 10.875 18.6797 10.2656ZM14.5547 25.3359C14.0547 25.0234 13.7031 23.5469 13.5 20.9062C13.3125 18.2656 13.3125 15.4766 13.5 12.5391C13.7031 9.60156 14.0391 7.59375 14.5078 6.51562C14.8984 5.64062 15.3594 5.23438 15.8906 5.29688C16.2812 5.34375 16.5234 5.625 16.6172 6.14062C16.7422 6.73438 16.5703 7.36719 16.1016 8.03906C15.6016 8.77344 15.2031 9.90625 14.9062 11.4375C14.625 12.9688 14.4609 14.6406 14.4141 16.4531C14.3672 18.2656 14.3594 19.8984 14.3906 21.3516C14.4219 22.7891 14.4766 24.1172 14.5547 25.3359Z" fill="white"/>
</svg>
