<svg width="30" height="30" viewBox="0 0 30 30" fill="none" xmlns="http://www.w3.org/2000/svg">
<path d="M18.9141 15.8438C18.2891 15.8438 17.5234 15.8047 16.6172 15.7266C15.7266 15.6328 14.9688 15.5547 14.3438 15.4922C13.7188 15.4297 13.0781 15.4141 12.4219 15.4453C11.7656 15.4609 11.2422 15.5547 10.8516 15.7266C10.4141 15.9141 10.0234 16.1172 9.67969 16.3359C9.35156 16.5391 8.97656 16.7109 8.55469 16.8516C8.21094 16.9609 7.92188 17.0234 7.6875 17.0391C7.45312 17.0391 7.27344 16.9922 7.14844 16.8984C7.03906 16.8047 6.96094 16.6875 6.91406 16.5469C6.86719 16.4062 6.84375 16.2266 6.84375 16.0078C6.85938 15.7734 6.875 15.5547 6.89062 15.3516C6.92188 15.1328 6.95312 14.8828 6.98438 14.6016C7.03125 14.3203 7.05469 14.0859 7.05469 13.8984C7.07031 13.6641 7.0625 13.3906 7.03125 13.0781C7 12.7656 6.96875 12.5 6.9375 12.2812C6.92188 12.0625 6.90625 11.8359 6.89062 11.6016C6.89062 11.3672 6.91406 11.1875 6.96094 11.0625C7.02344 10.9219 7.10938 10.8203 7.21875 10.7578C7.34375 10.6797 7.51562 10.6719 7.73438 10.7344C7.96875 10.7812 8.25781 10.8906 8.60156 11.0625C8.66406 11.0938 8.9375 11.2422 9.42188 11.5078C9.90625 11.7734 10.3984 12.0234 10.8984 12.2578C11.1016 12.3516 11.3125 12.4297 11.5312 12.4922C11.75 12.5547 12 12.6094 12.2812 12.6562C12.5781 12.7031 12.8438 12.7422 13.0781 12.7734C13.3125 12.8047 13.6172 12.8281 13.9922 12.8438C14.3828 12.8594 14.6875 12.875 14.9062 12.8906C15.1406 12.8906 15.4844 12.8906 15.9375 12.8906C16.4062 12.875 16.7344 12.8672 16.9219 12.8672C17.125 12.8672 17.4922 12.8594 18.0234 12.8438C18.5547 12.8281 18.8984 12.8203 19.0547 12.8203C19.1797 13.1953 19.2266 13.6953 19.1953 14.3203C19.1641 14.9297 19.0703 15.4375 18.9141 15.8438ZM13.8047 13.3125C13.8047 13.1875 13.7969 12.8828 13.7812 12.3984C13.7812 11.9141 13.7891 11.5234 13.8047 11.2266C13.8203 10.9141 13.8594 10.5 13.9219 9.98438C14 9.45312 14.1328 8.89062 14.3203 8.29688C14.5078 7.6875 14.7422 7.03906 15.0234 6.35156C15.5859 5.03906 16.1797 4.39844 16.8047 4.42969C17.2266 4.44531 17.5156 4.75 17.6719 5.34375C17.8906 6.14062 17.7344 6.88281 17.2031 7.57031C17.1719 7.61719 17.1406 7.65625 17.1094 7.6875C16.6719 8.21875 16.3438 8.78125 16.125 9.375C15.9062 9.95312 15.7891 10.4453 15.7734 10.8516C15.7734 11.2422 15.7891 11.6875 15.8203 12.1875C15.8672 12.6719 15.875 13 15.8438 13.1719C15.6875 13.7656 15.0078 13.8125 13.8047 13.3125ZM20.9062 24.1172C20.7188 24.6328 20.2969 25.0156 19.6406 25.2656C18.9531 25.5156 18.4922 25.4375 18.2578 25.0312C17.9609 24.5625 18.1328 23.7656 18.7734 22.6406C19.0703 22.125 19.25 21.5625 19.3125 20.9531C19.3906 20.3281 19.3828 19.7109 19.2891 19.1016C19.1953 18.4766 19.0703 17.8281 18.9141 17.1562C18.7578 16.4688 18.6172 15.75 18.4922 15C18.3672 14.2344 18.2891 13.4688 18.2578 12.7031C18.2266 11.9375 18.3125 11.1016 18.5156 10.1953C18.7188 9.28906 19.0469 8.39844 19.5 7.52344C20.1094 6.33594 20.8516 5.82031 21.7266 5.97656C22.2891 6.07031 22.7109 6.39062 22.9922 6.9375C23.2891 7.5625 23.2031 8.05469 22.7344 8.41406C22.4375 8.64844 22 8.78125 21.4219 8.8125C20.9219 9.3125 20.5703 9.96094 20.3672 10.7578C20.1797 11.5391 20.125 12.3594 20.2031 13.2188C20.2969 14.0625 20.4219 14.9922 20.5781 16.0078C20.7344 17.0234 20.8906 17.9844 21.0469 18.8906C21.2188 19.7969 21.3047 20.7266 21.3047 21.6797C21.3047 22.6328 21.1719 23.4453 20.9062 24.1172ZM15.2578 24.1875C15.0391 24.6719 14.5703 24.9375 13.8516 24.9844C13.1953 25.0312 12.7734 24.8828 12.5859 24.5391C12.3516 24.1328 12.6094 23.625 13.3594 23.0156C13.6875 22.75 13.9375 22.3984 14.1094 21.9609C14.2812 21.5078 14.3672 20.9688 14.3672 20.3438C14.3672 19.7031 14.3438 19.1406 14.2969 18.6562C14.2656 18.1719 14.1953 17.5391 14.0859 16.7578C13.9766 15.9609 13.9062 15.4141 13.875 15.1172C13.9844 15.0859 14.1328 15.0469 14.3203 15C14.5078 14.9531 14.7109 14.9141 14.9297 14.8828C15.1641 14.8516 15.3594 14.8516 15.5156 14.8828C15.6719 14.9141 15.75 14.9922 15.75 15.1172C15.7812 15.2266 15.8359 15.5234 15.9141 16.0078C16.0078 16.4922 16.0625 16.7969 16.0781 16.9219C16.0938 17.0469 16.1328 17.3203 16.1953 17.7422C16.2578 18.1641 16.2891 18.4531 16.2891 18.6094C16.2891 18.7656 16.2969 19.0391 16.3125 19.4297C16.3438 19.8203 16.3438 20.125 16.3125 20.3438C16.2812 20.5469 16.2422 20.8359 16.1953 21.2109C16.1484 21.5703 16.0781 21.8906 15.9844 22.1719C15.9062 22.4531 15.8047 22.7734 15.6797 23.1328C15.5703 23.4766 15.4297 23.8281 15.2578 24.1875Z" fill="white"/>
</svg>
