<svg width="30" height="30" viewBox="0 0 30 30" fill="none" xmlns="http://www.w3.org/2000/svg">
<path d="M13.2422 21.2109C13.4922 20.5234 13.7656 20.0312 14.0625 19.7344C14.3594 19.4219 14.6406 19.3125 14.9062 19.4062C15.1875 19.4844 15.4375 19.6953 15.6562 20.0391C15.8906 20.3672 16.0781 20.7891 16.2188 21.3047C16.3594 21.8516 16.4375 22.2812 16.4531 22.5938C16.4844 22.8906 16.4609 23.0781 16.3828 23.1562C16.3203 23.2344 16.2109 23.2578 16.0547 23.2266C15.9141 23.1797 15.7656 23.1016 15.6094 22.9922C15.4688 22.8828 15.3125 22.7891 15.1406 22.7109C14.9688 22.6172 14.8281 22.5703 14.7188 22.5703C14.6406 22.5703 14.5078 22.6172 14.3203 22.7109C14.1484 22.7891 13.9766 22.875 13.8047 22.9688C13.6484 23.0625 13.4922 23.1172 13.3359 23.1328C13.1797 23.1484 13.0625 23.1172 12.9844 23.0391C12.9062 22.9609 12.8828 22.7734 12.9141 22.4766C12.9609 22.1641 13.0703 21.7422 13.2422 21.2109ZM8.55469 20.3906C9.57031 19.5156 10.4531 18.3438 11.2031 16.875C11.9688 15.4062 12.5391 13.9141 12.9141 12.3984C13.3047 10.8828 13.5625 9.35156 13.6875 7.80469C13.75 7.08594 13.8906 6.5 14.1094 6.04688C14.3438 5.59375 14.5938 5.33594 14.8594 5.27344C15.125 5.21094 15.3828 5.39062 15.6328 5.8125C15.8984 6.21875 16.0859 6.84375 16.1953 7.6875C16.5078 10.1719 17.1797 12.9922 18.2109 16.1484C19.3828 19.7422 20.4062 21.5859 21.2812 21.6797C21.4062 21.6953 21.5234 21.6719 21.6328 21.6094C21.7422 21.5469 21.8828 21.4297 22.0547 21.2578C22.2422 21.0859 22.4141 20.9219 22.5703 20.7656C22.7266 20.6094 22.8984 20.4609 23.0859 20.3203C23.2891 20.1641 23.4688 20.0781 23.625 20.0625C23.7812 20.0469 23.9453 20.0938 24.1172 20.2031C24.2266 20.3281 24.2812 20.5391 24.2812 20.8359C24.2969 21.1172 24.2266 21.4453 24.0703 21.8203C23.9141 22.1953 23.7266 22.5469 23.5078 22.875C23.3047 23.1875 23.0234 23.4453 22.6641 23.6484C22.3203 23.8516 21.9688 23.9219 21.6094 23.8594C21 23.7656 20.3984 23.3984 19.8047 22.7578C19.2266 22.1172 18.7109 21.3203 18.2578 20.3672C17.8203 19.3984 17.4297 18.3906 17.0859 17.3438C16.7578 16.2969 16.4922 15.2422 16.2891 14.1797C15.8047 13.9297 15.3125 13.7578 14.8125 13.6641C14.3281 13.5703 13.8516 13.5859 13.3828 13.7109C13.3047 14.4297 13.1484 15.1406 12.9141 15.8438C12.6953 16.5312 12.4766 17.1094 12.2578 17.5781C12.0391 18.0469 11.7188 18.5938 11.2969 19.2188C10.875 19.8281 10.5625 20.2656 10.3594 20.5312C10.1562 20.7812 9.79688 21.2031 9.28125 21.7969C8.78125 22.375 8.48438 22.7188 8.39062 22.8281C7.90625 23.4062 7.4375 23.7422 6.98438 23.8359C6.53125 23.9297 6.15625 23.8359 5.85938 23.5547C5.57812 23.2578 5.34375 22.9062 5.15625 22.5C4.98438 22.0781 4.90625 21.6406 4.92188 21.1875C4.9375 20.7344 5.04688 20.3984 5.25 20.1797C5.65625 19.7578 6.10156 19.5312 6.58594 19.5C7.07031 19.4688 7.47656 19.5469 7.80469 19.7344C8.14844 19.9219 8.39844 20.1406 8.55469 20.3906ZM8.78906 16.4766C7.57031 17.6797 6.6875 18.0625 6.14062 17.625C5.6875 17.25 5.64062 16.4922 6 15.3516C6.17188 14.8203 6.42188 14.2734 6.75 13.7109C7.60938 12.3047 8.64844 11.1484 9.86719 10.2422C10.8203 9.53906 11.3984 9.35938 11.6016 9.70312C11.7109 9.92188 11.6328 10.3203 11.3672 10.8984C10.9766 11.7891 10.9062 12.3203 11.1562 12.4922C11.2344 12.5234 11.3281 12.5234 11.4375 12.4922C12.1406 12.2734 13.375 12.2891 15.1406 12.5391C16.9219 12.7891 18.1875 13.125 18.9375 13.5469C19.8281 14.0312 20.2734 14.0391 20.2734 13.5703C20.2578 13.1328 19.9922 12.6484 19.4766 12.1172C19.0703 11.6953 19.0078 11.2734 19.2891 10.8516C19.5859 10.3828 20.0859 10.2344 20.7891 10.4062C21.7734 10.6406 22.75 11.4844 23.7188 12.9375C24.8594 14.6406 25.2812 16.0469 24.9844 17.1562C24.7969 17.9062 24.3516 18.2734 23.6484 18.2578C22.8984 18.2266 22.1016 17.7734 21.2578 16.8984C20.4766 16.0859 19.4922 15.4766 18.3047 15.0703C17.1328 14.6484 15.9531 14.4453 14.7656 14.4609C13.5938 14.4766 12.4609 14.6641 11.3672 15.0234C10.2891 15.3672 9.42969 15.8516 8.78906 16.4766Z" fill="white"/>
</svg>
