<svg width="30" height="30" viewBox="0 0 30 30" fill="none" xmlns="http://www.w3.org/2000/svg">
<path d="M11.3438 16.6406C9.26562 15.75 7.82812 14.4062 7.03125 12.6094C6.29688 10.9531 6.28125 9.375 6.98438 7.875C7.73438 6.28125 9.09375 5.25 11.0625 4.78125C13.5156 4.20313 16.5 4.63281 20.0156 6.07031C21.0312 6.49219 21.8203 7.03906 22.3828 7.71094C22.9609 8.38281 23.3047 9.10156 23.4141 9.86719C23.5234 10.6328 23.5 11.4453 23.3438 12.3047C23.1875 13.1484 22.9062 13.9766 22.5 14.7891C22.1094 15.5859 21.6719 16.3438 21.1875 17.0625C20.7031 17.7656 20.2031 18.3828 19.6875 18.9141C19.1875 19.4297 18.7344 19.8125 18.3281 20.0625C17.6406 20.4844 16.8906 20.8047 16.0781 21.0234C15.2812 21.2266 14.5391 21.3359 13.8516 21.3516C13.1641 21.3672 12.5078 21.3672 11.8828 21.3516C11.2734 21.3359 10.7266 21.3516 10.2422 21.3984C9.75781 21.4453 9.40625 21.5625 9.1875 21.75C8.79688 22.0469 8.625 22.4141 8.67188 22.8516C8.73438 23.2891 8.90625 23.7109 9.1875 24.1172C9.46875 24.5391 9.85156 24.9609 10.3359 25.3828C9.94531 25.2578 9.60156 25.125 9.30469 24.9844C9.02344 24.8438 8.71875 24.6406 8.39062 24.375C8.07812 24.1094 7.85156 23.8203 7.71094 23.5078C7.57031 23.1797 7.51562 22.7656 7.54688 22.2656C7.57812 21.7656 7.73438 21.2109 8.01562 20.6016C8.17188 20.2422 8.51562 20.0391 9.04688 19.9922C9.57812 19.9297 10.2109 19.9531 10.9453 20.0625C11.6797 20.1562 12.4375 20.25 13.2188 20.3438C14 20.4219 14.8047 20.375 15.6328 20.2031C16.4609 20.0312 17.1562 19.6875 17.7188 19.1719C18.9219 18.0625 19.8516 16.7891 20.5078 15.3516C21.1797 13.9141 21.4375 12.5547 21.2812 11.2734C21.1406 9.99219 20.5547 9.0625 19.5234 8.48438C18.9922 8.1875 18.3906 7.99219 17.7188 7.89844C17.0625 7.80469 16.3906 7.82812 15.7031 7.96875C15.0156 8.10938 14.3594 8.38281 13.7344 8.78906C13.1094 9.17969 12.5781 9.72656 12.1406 10.4297C11.7031 11.1172 11.3984 11.9766 11.2266 13.0078C11.0703 14.0391 11.1094 15.25 11.3438 16.6406ZM10.2656 10.1719C10.5781 9.76562 10.5547 9.28125 10.1953 8.71875C9.85156 8.21875 9.47656 8 9.07031 8.0625C8.82031 8.10938 8.625 8.27344 8.48438 8.55469C8.01562 9.52344 7.84375 10.2109 7.96875 10.6172C8.10938 11.0078 8.42188 11.1562 8.90625 11.0625C9.40625 10.9531 9.85938 10.6562 10.2656 10.1719Z" fill="white"/>
</svg>
