<svg width="30" height="30" viewBox="0 0 30 30" fill="none" xmlns="http://www.w3.org/2000/svg">
<path d="M20.8828 23.7656C20.6641 23.4219 20.5625 23.0625 20.5781 22.6875C20.5938 22.3125 20.7188 21.9922 20.9531 21.7266C21.2031 21.4453 21.4844 21.2266 21.7969 21.0703C22.1094 20.8984 22.4453 20.8516 22.8047 20.9297C23.1797 21.0078 23.5 21.2188 23.7656 21.5625C24.2188 22.1406 24.3047 22.7891 24.0234 23.5078C23.7578 24.2109 23.3281 24.6094 22.7344 24.7031C22.1406 24.8125 21.5234 24.5 20.8828 23.7656ZM21.4219 5.76562C21.4219 7.35938 21.0859 8.32031 20.4141 8.64844C19.9766 8.85156 19.5938 8.73438 19.2656 8.29688C19.0312 7.96875 18.9141 7.55469 18.9141 7.05469C18.0391 6.99219 16.8281 7.29688 15.2812 7.96875C13.75 8.64062 12.4922 9.48438 11.5078 10.5C10.5391 11.5156 10.3984 12.3984 11.0859 13.1484C11.2891 13.3672 11.7812 13.5469 12.5625 13.6875C13.3594 13.8125 14.25 13.8672 15.2344 13.8516C16.2344 13.8359 17.2109 13.7656 18.1641 13.6406C19.1172 13.5156 19.9141 13.2891 20.5547 12.9609C21.1953 12.6328 21.4922 12.2422 21.4453 11.7891C21.3359 10.4297 21.5469 9.57812 22.0781 9.23438C22.4688 8.98438 22.8438 9.13281 23.2031 9.67969C23.7656 10.5078 23.9297 11.7656 23.6953 13.4531C23.6016 14.125 23.0391 14.6719 22.0078 15.0938C20.9922 15.5 19.7734 15.7578 18.3516 15.8672C16.9453 15.9609 15.5312 15.9922 14.1094 15.9609C12.6875 15.9297 11.4531 15.8281 10.4062 15.6562C9.35938 15.4688 8.76562 15.2656 8.625 15.0469C8.29688 14.4688 8.125 13.8672 8.10938 13.2422C8.10938 12.6016 8.28125 11.9453 8.625 11.2734C8.96875 10.6016 9.40625 9.95312 9.9375 9.32812C10.4844 8.70312 11.125 8.11719 11.8594 7.57031C12.6094 7.00781 13.375 6.52344 14.1562 6.11719C14.9531 5.69531 15.7734 5.36719 16.6172 5.13281C17.4766 4.89844 18.2734 4.78125 19.0078 4.78125C19.1016 3.96875 19.3984 3.52344 19.8984 3.44531C20.3672 3.36719 20.7578 3.60938 21.0703 4.17188C21.3203 4.60937 21.4375 5.14063 21.4219 5.76562ZM8.46094 23.8594C9.64844 23.8125 10.6953 23.5547 11.6016 23.0859C12.5234 22.6016 13.25 21.9766 13.7812 21.2109C14.3125 20.4453 14.6875 19.5859 14.9062 18.6328C15.1406 17.6641 15.2031 16.6562 15.0938 15.6094L17.9766 15.5156C17.9609 16.8438 17.75 18.0781 17.3438 19.2188C16.9531 20.3594 16.375 21.3828 15.6094 22.2891C14.8438 23.1797 13.8438 23.8984 12.6094 24.4453C11.3906 24.9922 9.98438 25.2969 8.39062 25.3594C8.48438 25.9062 8.28906 26.3281 7.80469 26.625C7.30469 26.9375 6.84375 26.9062 6.42188 26.5312C5.95312 26.1094 5.75781 25.3438 5.83594 24.2344C5.92969 22.7812 6.3125 22.0469 6.98438 22.0312C7.4375 22.0156 7.83594 22.2891 8.17969 22.8516C8.39844 23.1953 8.49219 23.5312 8.46094 23.8594Z" fill="white"/>
</svg>
