<svg width="30" height="30" viewBox="0 0 30 30" fill="none" xmlns="http://www.w3.org/2000/svg">
<path d="M14.0039 4.05469C15.5977 4.05469 16.5977 4.04687 17.0039 4.03125C16.6445 6.10937 16.4414 8.10938 16.3945 10.0312C16.3945 10.5 16.7773 10.8516 17.543 11.0859C18.5742 11.3984 19.6055 11.3359 20.6367 10.8984C22.1211 10.2422 22.8555 9.02344 22.8398 7.24219C22.8398 6.89844 22.8086 6.54688 22.7461 6.1875C23.1992 6.84375 23.5039 7.49219 23.6602 8.13281C23.832 8.77344 23.8633 9.35938 23.7539 9.89062C23.6445 10.4219 23.4336 10.9297 23.1211 11.4141C22.8086 11.8828 22.3945 12.2812 21.8789 12.6094C21.3789 12.9219 20.8086 13.1953 20.168 13.4297C19.543 13.6484 18.8555 13.7734 18.1055 13.8047C17.3711 13.8203 16.6133 13.7656 15.832 13.6406C15.5664 15.2969 15.4805 16.6016 15.5742 17.5547C15.6992 18.8828 16.1836 19.5703 17.0273 19.6172C17.793 19.6641 18.5664 19.2266 19.3477 18.3047C19.7227 17.8516 20.0273 17.3438 20.2617 16.7812C20.3867 17.4062 20.3789 18.0312 20.2383 18.6562C20.1133 19.2812 19.8789 19.8281 19.5352 20.2969C19.207 20.75 18.8164 21.125 18.3633 21.4219C17.9258 21.7031 17.4336 21.8438 16.8867 21.8438C16.3555 21.8281 15.832 21.6484 15.3164 21.3047C15.1758 22.9453 14.9648 24.2734 14.6836 25.2891C14.668 25.1016 14.6211 24.6016 14.543 23.7891C14.4648 22.9609 14.4023 22.375 14.3555 22.0312C14.3086 21.6719 14.2227 21.1719 14.0977 20.5312C13.9727 19.8906 13.8008 19.3203 13.582 18.8203C13.3789 18.3203 13.1289 17.8359 12.832 17.3672C12.7539 17.5078 12.5664 17.7031 12.2695 17.9531C11.9727 18.2031 11.6055 18.4453 11.168 18.6797C10.7461 18.9141 10.293 19.1172 9.80859 19.2891C9.33984 19.4453 8.87109 19.4844 8.40234 19.4062C7.94922 19.3125 7.54297 19.1094 7.18359 18.7969C6.83984 18.4688 6.57422 17.8984 6.38672 17.0859C6.19922 16.2734 6.13672 15.2578 6.19922 14.0391C6.40234 10.7734 7.16016 8.82031 8.47266 8.17969C9.28516 7.78906 10.0977 7.94531 10.9102 8.64844C11.6445 9.30469 12.0352 10.0859 12.082 10.9922C12.0977 11.6328 11.8867 12.1875 11.4492 12.6562C11.4023 11.7188 11.0508 11 10.3945 10.5C9.76953 10.0156 9.20703 10.0156 8.70703 10.5C8.12891 11.0781 7.85547 12.2031 7.88672 13.875C7.91797 15.3281 8.46484 16.0391 9.52734 16.0078C10.4648 15.9609 11.4883 15.4375 12.5977 14.4375C13.5977 13.5156 14.1211 12.6875 14.168 11.9531C14.2773 10.3281 14.2227 7.69531 14.0039 4.05469Z" fill="white"/>
</svg>
