<svg width="30" height="30" viewBox="0 0 30 30" fill="none" xmlns="http://www.w3.org/2000/svg">
<path d="M19.8281 10.2422C19.3125 9.64844 18.5859 9.19531 17.6484 8.88281C16.7109 8.55469 15.7109 8.42969 14.6484 8.50781C15.1172 10.6797 15.3594 12.9453 15.375 15.3047C15.3906 16.0859 15.25 17.1875 14.9531 18.6094C14.6719 20.0312 14.3047 21.1875 13.8516 22.0781C13.7422 22.2969 13.6094 22.4531 13.4531 22.5469C13.3125 22.625 13.1797 22.6484 13.0547 22.6172C12.9297 22.5859 12.8125 22.5156 12.7031 22.4062C12.6094 22.2969 12.5547 22.1562 12.5391 21.9844C12.5391 21.7969 12.5781 21.6094 12.6562 21.4219C13.0469 20.6094 13.3125 19.75 13.4531 18.8438C13.6094 17.9219 13.7109 16.7656 13.7578 15.375C13.8984 11.9219 13.2031 8.92188 11.6719 6.375C12.5156 6.4375 13.8594 6.42188 15.7031 6.32812C17.5469 6.21875 18.9453 6.17969 19.8984 6.21094C20.0391 7.91406 20.0156 9.25781 19.8281 10.2422ZM13.6172 11.1328L13.8984 13.0781C13.8672 13.2031 13.75 13.4141 13.5469 13.7109C13.3438 14.0078 13.0859 14.3281 12.7734 14.6719C12.4766 15.0156 12.1016 15.3203 11.6484 15.5859C11.2109 15.8359 10.7734 15.9688 10.3359 15.9844C9.50781 16.0156 9.17969 14.5234 9.35156 11.5078C8.35156 11.4766 7.71094 11.1094 7.42969 10.4062C7.21094 9.84375 7.30469 9.375 7.71094 9C8.08594 8.64062 8.59375 8.54688 9.23438 8.71875C9.10938 9.21875 9.15625 9.59375 9.375 9.84375C9.59375 10.0938 9.98438 10.1484 10.5469 10.0078C10.375 11.0078 10.3125 11.8125 10.3594 12.4219C10.4062 13.0312 10.5781 13.6094 10.875 14.1562C12.125 13.2344 13.0391 12.2266 13.6172 11.1328ZM13.6406 22.9219C13.9688 22.8281 14.2891 22.4297 14.6016 21.7266C14.9141 21.0234 15.2109 20.2188 15.4922 19.3125C15.7734 18.3906 16.0859 17.4844 16.4297 16.5938C16.7734 15.6875 17.1953 14.9375 17.6953 14.3438C18.2109 13.75 18.7734 13.4688 19.3828 13.5C19.8047 13.5312 20.1406 13.6953 20.3906 13.9922C20.6562 14.2891 20.8203 14.6172 20.8828 14.9766C20.9453 15.3203 21.0156 15.6797 21.0938 16.0547C21.1875 16.4297 21.2891 16.6797 21.3984 16.8047C21.4766 16.8828 21.6172 17.0234 21.8203 17.2266C22.0234 17.4297 22.1719 17.5938 22.2656 17.7188C22.375 17.8281 22.4766 17.9766 22.5703 18.1641C22.6797 18.3516 22.7031 18.5391 22.6406 18.7266C22.5938 18.9141 22.4766 19.1016 22.2891 19.2891C22.1172 19.4766 21.8516 19.4844 21.4922 19.3125C21.1484 19.125 20.8359 18.8438 20.5547 18.4688C20.2734 18.0781 20.1406 17.7109 20.1562 17.3672C20.1562 17.3203 20.1641 17.2109 20.1797 17.0391C20.1953 16.8516 20.2031 16.7109 20.2031 16.6172C20.2031 16.5234 20.1953 16.3984 20.1797 16.2422C20.1797 16.0703 20.1562 15.9375 20.1094 15.8438C20.0781 15.75 20.0312 15.6484 19.9688 15.5391C19.9062 15.4297 19.8203 15.3516 19.7109 15.3047C19.6172 15.2578 19.4922 15.2344 19.3359 15.2344C18.8672 15.2188 18.4531 15.5156 18.0938 16.125C17.7344 16.7344 17.4297 17.4766 17.1797 18.3516C16.9297 19.2266 16.6719 20.1016 16.4062 20.9766C16.1562 21.8516 15.8125 22.5938 15.375 23.2031C14.9531 23.8125 14.4609 24.1094 13.8984 24.0938C13.5078 24.0938 13.2031 24.0312 12.9844 23.9062C12.7812 23.7656 12.7266 23.6016 12.8203 23.4141C12.9297 23.2266 13.2031 23.0625 13.6406 22.9219Z" fill="white"/>
</svg>
