<svg width="30" height="30" viewBox="0 0 30 30" fill="none" xmlns="http://www.w3.org/2000/svg">
<path d="M16.4766 7.21875C17.8984 5.8125 19.2188 5.27344 20.4375 5.60156C21.3125 5.83594 21.8906 6.44531 22.1719 7.42969C22.5625 8.71094 22.2812 10.0781 21.3281 11.5312C21.1719 11.7812 20.9922 12.0234 20.7891 12.2578C20.5078 11.2734 20.2109 10.4609 19.8984 9.82031C19.5859 9.17969 19.2422 8.67969 18.8672 8.32031C18.4922 7.96094 18.125 7.70312 17.7656 7.54688C17.4062 7.39063 16.9766 7.28125 16.4766 7.21875ZM12.5156 4.64062C12.8125 5.85938 13.0703 6.875 13.2891 7.6875C13.5078 8.5 13.8438 9.46875 14.2969 10.5938C14.75 11.7031 15.2344 12.6016 15.75 13.2891C17.1094 13.8203 19.6094 14.2578 23.25 14.6016C22.1562 16.1172 20.9219 17.6172 19.5469 19.1016C18.1875 20.5859 16.5938 22.2109 14.7656 23.9766C14.4062 22.8203 14.1016 21.5312 13.8516 20.1094C13.6016 18.6719 13.4609 17.3438 13.4297 16.125C13.4297 16 13.3984 15.9062 13.3359 15.8438C13.2734 15.7656 13.1484 15.7266 12.9609 15.7266C9.74219 15.6953 6.92969 15.6016 4.52344 15.4453C5.28906 13.8047 6.53906 11.8125 8.27344 9.46875C10.0078 7.10938 11.4219 5.5 12.5156 4.64062ZM20.9766 15.5156C18.6797 15.25 17.0234 15 16.0078 14.7656C15.8359 14.7344 15.5859 14.9062 15.2578 15.2812C14.9297 15.6562 14.75 15.9609 14.7188 16.1953C14.6562 16.9141 14.7031 17.8594 14.8594 19.0312C15.0156 20.2031 15.1953 21.0312 15.3984 21.5156C16.0703 21.0156 16.9609 20.1562 18.0703 18.9375C19.1797 17.7188 20.1484 16.5781 20.9766 15.5156ZM23.9297 15.6562C24.5078 14.9531 24.9609 14.7422 25.2891 15.0234C25.5078 15.2109 25.5469 15.4688 25.4062 15.7969C25.3906 15.8594 25.3594 15.9141 25.3125 15.9609C21.9844 20.3672 19.1172 23.6562 16.7109 25.8281C16.3984 26.1094 16.0625 26.125 15.7031 25.875C15.3438 25.625 15.2734 25.3047 15.4922 24.9141C15.5703 24.7578 15.6953 24.6172 15.8672 24.4922C16.5078 23.9766 17.3203 23.2031 18.3047 22.1719C19.2891 21.125 20.1094 20.2188 20.7656 19.4531C21.4219 18.6719 22.3203 17.5938 23.4609 16.2188C23.6641 15.9688 23.8203 15.7812 23.9297 15.6562Z" fill="white"/>
</svg>
