<svg width="30" height="30" viewBox="0 0 30 30" fill="none" xmlns="http://www.w3.org/2000/svg">
<path d="M8.36719 8.95312C8.61719 9.34375 9.17969 10.2734 10.0547 11.7422C10.9453 13.2109 11.5625 14.2266 11.9062 14.7891C12.7969 13.3828 13.6172 11.5781 14.3672 9.375C15.1172 7.17188 15.625 5.07812 15.8906 3.09375C15.8906 3.09375 16.2891 4.85938 17.0859 8.39062C18.8359 15.4531 20.1797 18.875 21.1172 18.6562C21.4766 18.5312 21.7734 18.2578 22.0078 17.8359C22.2422 17.3984 22.3906 16.9219 22.4531 16.4062C22.5312 15.875 22.5781 15.3516 22.5938 14.8359C22.625 14.3203 22.625 13.8906 22.5938 13.5469L22.5469 13.0312C21.6875 14.5469 20.3203 16.1719 18.4453 17.9062L18.3516 16.7344C19.6953 15.5312 21.2266 13.4844 22.9453 10.5938C23.1484 11 23.3203 11.5703 23.4609 12.3047C23.6016 13.0391 23.6719 13.8516 23.6719 14.7422C23.6875 15.6328 23.625 16.4922 23.4844 17.3203C23.3594 18.1484 23.0938 18.8906 22.6875 19.5469C22.2969 20.1875 21.7812 20.6094 21.1406 20.8125C20.7031 20.9531 20.2578 20.8672 19.8047 20.5547C19.3672 20.2422 18.9688 19.7812 18.6094 19.1719C18.25 18.5469 17.9062 17.8438 17.5781 17.0625C17.2656 16.2812 16.9922 15.4844 16.7578 14.6719C16.5234 13.8594 16.3203 13.1172 16.1484 12.4453C15.9766 11.7734 15.8516 11.2188 15.7734 10.7812L15.6328 10.1484C15.6641 10.1484 15.6328 10.3203 15.5391 10.6641C15.4453 11.0078 15.2891 11.4609 15.0703 12.0234C14.8672 12.5859 14.6094 13.2109 14.2969 13.8984C13.9844 14.5703 13.5938 15.2734 13.125 16.0078C12.6719 16.7266 12.1797 17.4062 11.6484 18.0469C11.1328 18.6719 10.5234 19.2344 9.82031 19.7344C9.13281 20.2188 8.42188 20.5547 7.6875 20.7422C7.03125 20.9141 6.60156 20.4922 6.39844 19.4766C6.13281 17.9609 6.34375 15.7422 7.03125 12.8203C7.46875 11.0078 7.91406 9.71875 8.36719 8.95312ZM8.41406 19.2188C8.75781 22.0781 9.66406 23.6016 11.1328 23.7891C11.9609 23.8984 12.6875 23.6016 13.3125 22.8984C13.9531 22.1953 14.2109 21.3438 14.0859 20.3438C13.1484 20.25 12.1328 20.3203 11.0391 20.5547C12.5859 19.0078 14.0625 16.8438 15.4688 14.0625C15.8281 16.2812 16.7578 18.6562 18.2578 21.1875C17.0547 20.7031 16.1094 20.4531 15.4219 20.4375C15.5469 21.7031 15.1562 22.8203 14.25 23.7891C13.3594 24.7422 12.3203 25.1953 11.1328 25.1484C10.1328 25.1172 9.29688 24.7031 8.625 23.9062C7.95312 23.1094 7.52344 21.8672 7.33594 20.1797L8.41406 19.2188Z" fill="white"/>
</svg>
