<svg width="30" height="30" viewBox="0 0 30 30" fill="none" xmlns="http://www.w3.org/2000/svg">
<path d="M18.832 6.63281C19.7383 6.27344 20.4648 6.32812 21.0117 6.79688C21.4023 7.125 21.4961 7.45312 21.293 7.78125C21.0273 8.23438 20.3555 8.34375 19.2773 8.10938C18.6055 7.96875 18.1133 8.03906 17.8008 8.32031C17.5039 8.58594 17.3945 9.08594 17.4727 9.82031C17.5664 10.5391 17.6836 11.1953 17.8242 11.7891C17.9805 12.3672 18.2227 13.1641 18.5508 14.1797C18.7852 14.8828 18.9648 15.4688 19.0898 15.9375C19.2148 16.4062 19.332 17.0078 19.4414 17.7422C19.5508 18.4609 19.582 19.1016 19.5352 19.6641C19.4883 20.2266 19.3477 20.8438 19.1133 21.5156C18.8789 22.1719 18.5352 22.7969 18.082 23.3906C17.9102 23.6094 17.6602 23.7266 17.332 23.7422C17.0195 23.7578 16.8008 23.6562 16.6758 23.4375C16.5508 23.2188 16.6133 22.875 16.8633 22.4062C17.332 21.6562 17.6211 20.8281 17.7305 19.9219C17.8398 19 17.8164 18.1172 17.6602 17.2734C17.5195 16.4141 17.3242 15.5469 17.0742 14.6719C16.8398 13.7812 16.6367 12.9375 16.4648 12.1406C16.3086 11.3438 16.2383 10.6016 16.2539 9.91406C16.2695 9.21094 16.4805 8.57812 16.8867 8.01562C17.3086 7.4375 17.957 6.97656 18.832 6.63281ZM9.12891 10.3359C8.51953 9.44531 8.44141 8.69531 8.89453 8.08594C9.22266 7.61719 9.66797 7.44531 10.2305 7.57031C10.8867 7.72656 11.2773 8.25 11.4023 9.14062C11.4336 9.29688 11.4492 9.46094 11.4492 9.63281C11.4648 10.5391 11.6914 11.2969 12.1289 11.9062C12.582 12.5 13.0195 12.8047 13.4414 12.8203C13.7852 12.8359 14.3164 12.6094 15.0352 12.1406C15.7539 11.6719 16.3242 11.1641 16.7461 10.6172C16.7617 10.7734 16.8086 11.0703 16.8867 11.5078C16.9648 11.9453 17.0039 12.2188 17.0039 12.3281C16.5195 12.8125 15.8945 13.2891 15.1289 13.7578C14.3789 14.2109 13.8086 14.4297 13.418 14.4141C13.0273 14.3984 12.3867 13.9688 11.4961 13.125C10.6055 12.2656 9.81641 11.3359 9.12891 10.3359ZM9.94922 17.8359C9.23047 16.7578 9.08984 16.0078 9.52734 15.5859C9.82422 15.3047 10.2148 15.2891 10.6992 15.5391C11.1523 15.7734 11.418 16.1406 11.4961 16.6406C11.6055 17.3438 11.918 17.9844 12.4336 18.5625C12.9648 19.125 13.4414 19.3906 13.8633 19.3594C14.3633 19.3125 15.1055 18.8359 16.0898 17.9297C17.0898 17.0078 17.6914 16.3047 17.8945 15.8203C17.9102 15.9609 17.9414 16.2891 17.9883 16.8047C18.0352 17.3203 18.0586 17.6328 18.0586 17.7422C17.4336 18.4766 16.6836 19.1797 15.8086 19.8516C14.9336 20.5234 14.2461 20.8438 13.7461 20.8125C13.293 20.7812 12.6992 20.5078 11.9648 19.9922C11.2461 19.4766 10.5742 18.7578 9.94922 17.8359Z" fill="white"/>
</svg>
