<svg width="30" height="30" viewBox="0 0 30 30" fill="none" xmlns="http://www.w3.org/2000/svg">
<path d="M19.5117 5.32031C20.2773 5.32031 20.8867 5.53125 21.3398 5.95312C21.793 6.39062 21.9961 6.89062 21.9492 7.45312C21.9023 7.9375 21.6914 8.375 21.3164 8.76562C20.957 9.14062 20.5039 9.375 19.957 9.46875V13.3359V14.9062L18.832 13.7812C17.832 12.7812 16.082 11.2344 13.582 9.14062C13.4883 11.7969 13.5352 13.9844 13.7227 15.7031L13.8398 16.9453L12.7617 16.3359C11.918 15.8984 10.8164 15.3984 9.45703 14.8359C9.41016 16.5391 9.42578 18.3672 9.50391 20.3203C11.2695 19.3047 13.1055 18.8438 15.0117 18.9375C17.418 19.0625 19.4023 19.7578 20.9648 21.0234C21.1836 21.1641 21.293 21.3516 21.293 21.5859C21.293 21.7734 21.2305 21.9375 21.1055 22.0781C20.9805 22.2031 20.8242 22.2656 20.6367 22.2656C20.4648 22.2656 20.3008 22.1875 20.1445 22.0312C19.5195 21.5312 18.7461 21.125 17.8242 20.8125C16.918 20.4844 15.9648 20.2969 14.9648 20.25C12.668 20.1406 10.7539 20.6875 9.22266 21.8906L8.21484 22.6875L8.19141 21.3984C8.06641 18.0234 8.03516 15.4844 8.09766 13.7812L8.14453 12.8906L9.01172 13.1953C9.63672 13.3984 10.7617 13.9062 12.3867 14.7188C12.1523 12.0625 12.0977 9.67969 12.2227 7.57031L12.3164 6.28125L13.2773 7.07812C14.6367 8.15625 16.4102 9.74219 18.5977 11.8359V9.32812C18.3164 9.20312 18.082 9.03906 17.8945 8.83594C17.5195 8.44531 17.332 7.96875 17.332 7.40625C17.332 6.85937 17.5352 6.375 17.9414 5.95312C18.3477 5.53125 18.8711 5.32031 19.5117 5.32031ZM19.5117 6.65625C18.9336 6.65625 18.6445 6.90625 18.6445 7.40625C18.6445 7.57813 18.7227 7.75781 18.8789 7.94531C18.9883 8.08594 19.1992 8.15625 19.5117 8.15625C19.8711 8.15625 20.1367 8.07812 20.3086 7.92188C20.4805 7.76563 20.5742 7.58594 20.5898 7.38281C20.5898 7.17969 20.543 7.03125 20.4492 6.9375C20.2617 6.75 19.9492 6.65625 19.5117 6.65625ZM14.543 24.4688C14.543 24.8125 14.4102 25.1094 14.1445 25.3594C13.8945 25.6094 13.5898 25.7344 13.2305 25.7344C12.8711 25.7344 12.5664 25.6094 12.3164 25.3594C12.0664 25.125 11.9414 24.8281 11.9414 24.4688C11.9414 24.1094 12.0664 23.8125 12.3164 23.5781C12.5664 23.3281 12.8711 23.2031 13.2305 23.2031C13.5742 23.2031 13.8789 23.3281 14.1445 23.5781C14.4102 23.8125 14.543 24.1016 14.543 24.4453V24.4688ZM18.3398 24.6094C18.3398 24.9531 18.2227 25.2422 17.9883 25.4766C17.7539 25.7109 17.4727 25.8281 17.1445 25.8281C16.8164 25.8281 16.5352 25.7109 16.3008 25.4766C16.0664 25.2422 15.9492 24.9531 15.9492 24.6094C15.9492 24.2656 16.0664 23.9766 16.3008 23.7422C16.5352 23.4922 16.8164 23.3672 17.1445 23.3672C17.4727 23.3672 17.7539 23.4844 17.9883 23.7188C18.2227 23.9531 18.3398 24.2422 18.3398 24.5859V24.6094Z" fill="white"/>
</svg>
