<svg width="30" height="30" viewBox="0 0 30 30" fill="none" xmlns="http://www.w3.org/2000/svg">
<path d="M7.53516 13.2422C7.76953 13.0703 7.99609 12.9453 8.21484 12.8672C8.44922 12.7891 8.63672 12.7734 8.77734 12.8203C8.91797 12.8516 9.00391 12.9297 9.03516 13.0547C9.08203 13.1797 9.05078 13.3672 8.94141 13.6172C8.83203 13.8672 8.64453 14.1484 8.37891 14.4609C7.62891 15.3359 7.11328 16.2109 6.83203 17.0859C6.55078 17.9609 6.49609 18.7578 6.66797 19.4766C6.83984 20.1797 7.16797 20.8438 7.65234 21.4688C8.15234 22.0781 8.76172 22.5859 9.48047 22.9922C10.2148 23.3984 11.0352 23.7109 11.9414 23.9297C12.8477 24.1484 13.7695 24.2344 14.707 24.1875C16.0664 24.125 17.2852 23.9531 18.3633 23.6719C19.4414 23.375 20.3008 23.0156 20.9414 22.5938C21.5977 22.1719 22.1367 21.7031 22.5586 21.1875C22.9961 20.6562 23.2852 20.1328 23.4258 19.6172C23.582 19.1016 23.6602 18.6094 23.6602 18.1406C23.6758 17.6562 23.6211 17.2422 23.4961 16.8984C23.3867 16.5547 23.2461 16.2969 23.0742 16.125C22.7148 15.7969 22.5195 15.4531 22.4883 15.0938C22.4727 14.7188 22.6133 14.5078 22.9102 14.4609C23.207 14.4141 23.6289 14.6016 24.1758 15.0234C24.3008 15.1328 24.4336 15.3359 24.5742 15.6328C24.7305 15.9141 24.8633 16.2734 24.9727 16.7109C25.082 17.1328 25.1602 17.6016 25.207 18.1172C25.2695 18.6172 25.2383 19.1406 25.1133 19.6875C25.0039 20.2344 24.8242 20.7812 24.5742 21.3281C24.3242 21.8594 23.9258 22.3672 23.3789 22.8516C22.8477 23.3359 22.207 23.7656 21.457 24.1406C20.707 24.5156 19.7461 24.8203 18.5742 25.0547C17.418 25.3047 16.1133 25.4453 14.6602 25.4766C13.1133 25.5078 11.7305 25.3906 10.5117 25.125C9.30859 24.875 8.33984 24.5156 7.60547 24.0469C6.88672 23.5781 6.29297 23.0312 5.82422 22.4062C5.35547 21.7812 5.05078 21.125 4.91016 20.4375C4.78516 19.7344 4.75391 19.0312 4.81641 18.3281C4.87891 17.6094 5.04297 16.9297 5.30859 16.2891C5.57422 15.6328 5.89453 15.0469 6.26953 14.5312C6.66016 14 7.08203 13.5703 7.53516 13.2422ZM15.9492 14.4609C16.3711 14.9609 16.6602 15.4219 16.8164 15.8438C16.9727 16.25 17.0117 16.6094 16.9336 16.9219C16.8555 17.2344 16.7305 17.5547 16.5586 17.8828C16.3867 18.2109 16.1758 18.5312 15.9258 18.8438C15.6914 19.1406 15.4883 19.5 15.3164 19.9219C15.1602 20.3281 15.043 20.7734 14.9648 21.2578C14.9023 21.7266 14.9648 22.2969 15.1523 22.9688C14.6055 22.3594 14.2148 21.8047 13.9805 21.3047C13.7617 20.7891 13.6836 20.3672 13.7461 20.0391C13.8086 19.6953 13.9258 19.3828 14.0977 19.1016C14.2852 18.8203 14.4805 18.5625 14.6836 18.3281C14.9023 18.0781 15.082 17.8359 15.2227 17.6016C15.3789 17.3516 15.4258 17.0703 15.3633 16.7578C15.3008 16.4297 15.1055 16.0781 14.7773 15.7031C14.5117 15.4062 14.293 15.1484 14.1211 14.9297C13.9492 14.7109 13.7695 14.4453 13.582 14.1328C13.3945 13.8203 13.2695 13.5391 13.207 13.2891C13.1445 13.0391 13.1133 12.7578 13.1133 12.4453C13.1289 12.1172 13.2148 11.8125 13.3711 11.5312C13.5273 11.2344 13.7617 10.9219 14.0742 10.5938C14.4023 10.25 14.8164 9.91406 15.3164 9.58594C16.6758 8.66406 17.0898 7.45312 16.5586 5.95312C16.3711 5.42188 15.793 5.05469 14.8242 4.85156C13.8711 4.66406 13.207 4.73438 12.832 5.0625C12.5664 5.29688 12.5586 5.60938 12.8086 6C12.9336 6.20312 13.0039 6.4375 13.0195 6.70312C13.0508 6.96875 13.0273 7.20313 12.9492 7.40625C12.8711 7.60937 12.7539 7.77344 12.5977 7.89844C12.457 8.02344 12.2695 8.05469 12.0352 7.99219C11.8008 7.92969 11.5586 7.76563 11.3086 7.5C10.2148 6.34375 9.95703 5.25781 10.5352 4.24219C11.0195 3.42969 11.8633 2.9375 13.0664 2.76562C14.5977 2.53125 16.0039 2.9375 17.2852 3.98438C17.5195 4.17188 17.7383 4.375 17.9414 4.59375C18.2227 4.90625 18.4336 5.32031 18.5742 5.83594C18.7305 6.33594 18.8008 6.88281 18.7852 7.47656C18.7695 8.05469 18.5898 8.64062 18.2461 9.23438C17.918 9.82812 17.4414 10.3203 16.8164 10.7109C16.2852 11.0391 15.8867 11.3125 15.6211 11.5312C15.3711 11.7344 15.1836 11.9844 15.0586 12.2812C14.9336 12.5781 14.9414 12.8984 15.082 13.2422C15.2383 13.5703 15.5273 13.9766 15.9492 14.4609Z" fill="white"/>
</svg>
