<svg width="30" height="30" viewBox="0 0 30 30" fill="none" xmlns="http://www.w3.org/2000/svg">
<path d="M13.875 21.7734C13.625 22.3672 13.2344 23.1641 12.7031 24.1641C12.1875 25.1797 11.8203 25.8438 11.6016 26.1562C11.2578 26.6562 10.875 26.9609 10.4531 27.0703C10.0469 27.1953 9.70312 27.1328 9.42188 26.8828C9.15625 26.6328 9.01562 26.2812 9 25.8281C9 25.4531 8.97656 24.0703 8.92969 21.6797C8.88281 19.2891 8.85156 17.3672 8.83594 15.9141C8.82031 14.4453 8.8125 12.5391 8.8125 10.1953C8.82812 7.83594 8.85938 5.71875 8.90625 3.84375C8.92188 3.29687 9.14062 2.85938 9.5625 2.53125C9.98438 2.20312 10.3906 2.14844 10.7812 2.36719C11.1719 2.57031 11.3438 3.0625 11.2969 3.84375C11.1719 5.82812 11.0781 8.46094 11.0156 11.7422C10.9688 15.0078 10.9453 17.8047 10.9453 20.1328C10.9453 22.4609 10.9609 23.6641 10.9922 23.7422C11.0078 23.7734 11.1719 23.6797 11.4844 23.4609C11.8125 23.2422 12.25 22.9375 12.7969 22.5469C13.3438 22.1562 13.7031 21.8984 13.875 21.7734ZM18.9844 22.4297C18.875 22.0703 18.7344 21.1875 18.5625 19.7812C18.4062 18.3594 18.3047 17.6094 18.2578 17.5312C17.9766 17.4531 16.9531 17.4297 15.1875 17.4609C13.4375 17.4766 11.8281 17.5156 10.3594 17.5781L10.1484 15.375C13.1016 15.2812 16.2578 15.3672 19.6172 15.6328C19.9453 15.6641 20.1406 15.8906 20.2031 16.3125C20.3281 17.2656 20.2812 18.4766 20.0625 19.9453C19.8438 21.3984 19.4844 22.2266 18.9844 22.4297ZM10.5469 13.6172L10.5 11.3438C11.2344 11.3906 12.1328 11.3594 13.1953 11.25C13.1484 10.6562 13.1953 10.0078 13.3359 9.30469C13.4922 8.60156 13.7344 7.99219 14.0625 7.47656C14.3906 6.96094 14.75 6.70312 15.1406 6.70312C15.5938 6.70312 15.9844 6.97656 16.3125 7.52344C16.6406 8.07031 16.8672 8.70312 16.9922 9.42188C17.1328 10.125 17.2031 10.8359 17.2031 11.5547C17.4531 11.5859 17.8516 11.5547 18.3984 11.4609C18.5234 10.4609 18.8281 9.45312 19.3125 8.4375C19.7969 7.42187 20.4219 6.67187 21.1875 6.1875C21.125 6.46875 21 7 20.8125 7.78125C20.6406 8.5625 20.5 9.1875 20.3906 9.65625C20.2969 10.1094 20.1953 10.6719 20.0859 11.3438C19.9766 12 19.9062 12.5781 19.875 13.0781C19.875 13.1562 19.875 13.2266 19.875 13.2891C19.875 13.3516 19.8672 13.4062 19.8516 13.4531C19.8516 13.5 19.8359 13.5469 19.8047 13.5938C19.7891 13.625 19.75 13.6484 19.6875 13.6641C19.625 13.6797 19.5391 13.6875 19.4297 13.6875C16.3359 13.7344 13.375 13.7109 10.5469 13.6172Z" fill="white"/>
</svg>
