<svg width="30" height="30" viewBox="0 0 30 30" fill="none" xmlns="http://www.w3.org/2000/svg">
<path d="M11.6953 6.82031C12.1641 6.67969 12.5469 6.82031 12.8438 7.24219C13.125 7.63281 13.1328 7.96875 12.8672 8.25C12.6953 8.42188 12.4297 8.51562 12.0703 8.53125C11.1953 8.57812 10.4453 8.88281 9.82031 9.44531C9.19531 10.0078 8.73438 10.7188 8.4375 11.5781C8.15625 12.4375 7.96875 13.3984 7.875 14.4609C7.78125 15.5078 7.79688 16.5391 7.92188 17.5547C8.0625 18.5703 8.25781 19.5234 8.50781 20.4141C8.77344 21.2891 9.08594 21.9922 9.44531 22.5234C9.75781 22.9766 10.2891 23.2969 11.0391 23.4844C11.7891 23.6562 12.6328 23.6953 13.5703 23.6016C14.5234 23.5078 15.5156 23.2656 16.5469 22.875C17.5938 22.4844 18.5547 22 19.4297 21.4219C20.3203 20.8281 21.0859 20.0703 21.7266 19.1484C22.3672 18.2266 22.7578 17.2344 22.8984 16.1719C22.9922 15.4844 23.2422 15.1562 23.6484 15.1875C24.0391 15.2031 24.375 15.4766 24.6562 16.0078C24.9375 16.5234 24.9688 17.0156 24.75 17.4844C24.0938 18.9219 23.3594 20.125 22.5469 21.0938C21.7344 22.0625 20.8828 22.7891 19.9922 23.2734C19.1016 23.7422 18.1875 24.0859 17.25 24.3047C16.3281 24.5391 15.3438 24.6719 14.2969 24.7031C13.25 24.75 12.2422 24.7734 11.2734 24.7734C10.3203 24.7734 9.28125 24.8281 8.15625 24.9375C7.04688 25.0625 6.03125 25.2812 5.10938 25.5938C5.5 25.3594 5.82812 25.0938 6.09375 24.7969C6.375 24.5 6.58594 24.2109 6.72656 23.9297C6.88281 23.6328 6.99219 23.2969 7.05469 22.9219C7.11719 22.5312 7.14844 22.1797 7.14844 21.8672C7.16406 21.5547 7.14062 21.1797 7.07812 20.7422C7.01562 20.2891 6.95312 19.9141 6.89062 19.6172C6.82812 19.3203 6.74219 18.9375 6.63281 18.4688C6.53906 18 6.46875 17.6406 6.42188 17.3906C6.25 16.4375 6.14062 15.5625 6.09375 14.7656C6.04688 13.9531 6.10156 13.125 6.25781 12.2812C6.42969 11.4219 6.71094 10.6641 7.10156 10.0078C7.50781 9.33594 8.09375 8.71875 8.85938 8.15625C9.64062 7.59375 10.5859 7.14844 11.6953 6.82031ZM20.2734 4.35938C20.3047 4.34375 20.3594 4.33594 20.4375 4.33594C20.6094 4.33594 20.75 4.39844 20.8594 4.52344C20.9844 4.63281 21.0469 4.77344 21.0469 4.94531C21.0469 5.07031 21 5.19531 20.9062 5.32031C20.8281 5.42969 20.7266 5.5 20.6016 5.53125C19.7578 5.82812 18.9453 6.40625 18.1641 7.26562C17.3828 8.10938 16.6953 9.11719 16.1016 10.2891C15.5703 11.3672 15.1719 12.4531 14.9062 13.5469C14.6562 14.625 14.5859 15.4766 14.6953 16.1016C14.7109 16.1328 14.7188 16.2031 14.7188 16.3125C14.7188 16.4844 14.6641 16.6328 14.5547 16.7578C14.4453 16.8672 14.3047 16.9219 14.1328 16.9219C13.9766 16.9219 13.8359 16.8672 13.7109 16.7578C13.5859 16.6328 13.5234 16.4922 13.5234 16.3359C13.3828 15.4922 13.4453 14.4922 13.7109 13.3359C13.9922 12.1641 14.4297 10.9766 15.0234 9.77344C15.6641 8.49219 16.4219 7.375 17.2969 6.42188C18.1875 5.45312 19.1641 4.78125 20.2266 4.40625L20.2734 4.35938ZM23.9062 6.77344C23.9219 6.77344 23.9453 6.77344 23.9766 6.77344C24.0234 6.75781 24.0547 6.75 24.0703 6.75C24.2422 6.75 24.3828 6.8125 24.4922 6.9375C24.6016 7.04687 24.6562 7.1875 24.6562 7.35938C24.6562 7.65625 24.5078 7.84375 24.2109 7.92188C22.2891 8.625 20.8047 9.64062 19.7578 10.9688C18.4141 12.6875 17.5703 15.1094 17.2266 18.2344C17.2266 18.3906 17.1641 18.5234 17.0391 18.6328C16.9297 18.7422 16.7969 18.7969 16.6406 18.7969C16.4844 18.7969 16.3438 18.7344 16.2188 18.6094C16.0938 18.4844 16.0312 18.3438 16.0312 18.1875V18.1406C16.3906 14.7656 17.3047 12.1406 18.7734 10.2656C19.9766 8.73438 21.6484 7.57813 23.7891 6.79688C23.8047 6.78125 23.8438 6.77344 23.9062 6.77344ZM15.3047 19.8047C15.6641 20.1172 15.8203 20.4688 15.7734 20.8594C15.7422 21.25 15.5234 21.5703 15.1172 21.8203C14.7266 22.0547 14.2656 22.1484 13.7344 22.1016C13.2188 22.0547 12.7891 21.875 12.4453 21.5625C12.1016 21.25 11.9453 20.8984 11.9766 20.5078C12.0234 20.1172 12.2422 19.8047 12.6328 19.5703C13.0234 19.3203 13.4766 19.2188 13.9922 19.2656C14.5078 19.3125 14.9453 19.4922 15.3047 19.8047Z" fill="white"/>
</svg>
