<svg width="30" height="30" viewBox="0 0 30 30" fill="none" xmlns="http://www.w3.org/2000/svg">
<path d="M9.28125 9.21094C9.32812 7.66406 9.82031 5.99219 10.7578 4.19531C10.9297 4.49219 11.1797 4.73438 11.5078 4.92188C11.8516 5.10938 12.2188 5.25 12.6094 5.34375C13 5.4375 13.4141 5.53125 13.8516 5.625C14.3047 5.71875 14.7344 5.84375 15.1406 6C15.5625 6.15625 15.9453 6.36719 16.2891 6.63281C16.6328 6.88281 16.9219 7.25781 17.1562 7.75781C17.4062 8.24219 17.5547 8.83594 17.6016 9.53906C17.6484 9.97656 17.6328 10.4141 17.5547 10.8516C17.4766 11.2891 17.2812 11.7891 16.9688 12.3516C16.6562 12.8984 16.2266 13.3984 15.6797 13.8516C15.1484 14.2891 14.3828 14.7031 13.3828 15.0938C12.3984 15.4688 11.2344 15.7422 9.89062 15.9141C9.9375 16.4609 10.0625 16.9766 10.2656 17.4609C10.4688 17.9297 10.7031 18.3203 10.9688 18.6328C11.25 18.9453 11.5469 19.2578 11.8594 19.5703C12.1719 19.8828 12.4609 20.1562 12.7266 20.3906C12.9922 20.625 13.2188 20.9141 13.4062 21.2578C13.6094 21.5859 13.7266 21.9219 13.7578 22.2656C13.7891 22.5938 13.7266 23.0156 13.5703 23.5312C12.5391 22.25 11.4297 21.6875 10.2422 21.8438C9.38281 21.9688 8.76562 22.4062 8.39062 23.1562C7.9375 24.0781 8.09375 25.0312 8.85938 26.0156C9.03125 26.2188 9.21875 26.4219 9.42188 26.625C7.76562 26.0781 6.85156 25.2266 6.67969 24.0703C6.55469 23.1328 6.91406 22.2734 7.75781 21.4922C8.64844 20.6641 9.65625 20.3281 10.7812 20.4844C11.1094 20.5312 11.4219 20.625 11.7188 20.7656C10.7969 20.1406 9.98438 19.2188 9.28125 18C8.57812 16.7656 8.16406 15.5156 8.03906 14.25C11.8984 14.1562 14.4453 13.3359 15.6797 11.7891C16.4297 10.8516 16.5547 9.86719 16.0547 8.83594C15.6172 7.96094 14.9062 7.39063 13.9219 7.125C12.5469 6.76562 11.2344 7.20313 9.98438 8.4375C9.73438 8.67188 9.5 8.92969 9.28125 9.21094ZM13.5703 10.6641C14.9609 10.5547 16.2344 10.7188 17.3906 11.1562C18.5625 11.5781 19.5078 12.1719 20.2266 12.9375C20.9453 13.7031 21.4375 14.6016 21.7031 15.6328C21.9688 16.6641 21.9688 17.7031 21.7031 18.75C21.4531 19.7969 20.8516 20.8516 19.8984 21.9141C18.9453 22.9766 17.6797 23.8906 16.1016 24.6562C17.3047 23.6094 18.2734 22.5859 19.0078 21.5859C19.7578 20.5703 20.25 19.5469 20.4844 18.5156C20.7344 17.4844 20.6719 16.5156 20.2969 15.6094C19.9375 14.6875 19.1953 13.8047 18.0703 12.9609C16.9453 12.1016 15.4453 11.3359 13.5703 10.6641ZM23.3203 8.03906C23.1641 8.75781 23.0078 9.90625 22.8516 11.4844C22.7109 13.0469 22.5938 14.5547 22.5 16.0078C22.4219 17.4609 22.3359 19.0469 22.2422 20.7656C22.1484 22.4688 22.0781 23.5859 22.0312 24.1172C21.7344 23.6953 21.5078 22.7422 21.3516 21.2578C21.2109 19.7578 21.1641 18.1484 21.2109 16.4297C21.2578 14.6953 21.4609 13.0156 21.8203 11.3906C22.1953 9.75 22.6953 8.63281 23.3203 8.03906Z" fill="white"/>
</svg>
