<svg width="30" height="30" viewBox="0 0 30 30" fill="none" xmlns="http://www.w3.org/2000/svg">
<path d="M19.2891 21.6094C19.4766 20.9688 19.5781 20.3359 19.5938 19.7109C19.6094 19.0703 19.5547 18.5234 19.4297 18.0703C19.3203 17.6172 19.2109 17.2578 19.1016 16.9922C18.9922 16.7266 18.8906 16.5234 18.7969 16.3828C18.6875 16.2109 18.0781 16.125 16.9688 16.125C15.875 16.1094 14.6953 16.1406 13.4297 16.2188C12.1797 16.2969 11.0078 16.3438 9.91406 16.3594C8.83594 16.3594 8.25 16.2969 8.15625 16.1719C7.67188 15.4219 7.61719 14.5547 7.99219 13.5703C8.25781 12.8359 8.61719 12.4062 9.07031 12.2812C9.57031 12.1406 9.94531 12.5078 10.1953 13.3828C10.2891 13.7578 10.3516 14.2031 10.3828 14.7188C10.3984 14.8906 11.0234 14.9688 12.2578 14.9531C13.4922 14.9219 14.8438 14.8594 16.3125 14.7656C17.7969 14.6562 19.1562 14.5938 20.3906 14.5781C21.6406 14.5469 22.2734 14.6172 22.2891 14.7891C22.4609 15.7734 22.4062 16.7734 22.125 17.7891C21.8594 18.8047 21.4609 19.6562 20.9297 20.3438C20.4141 21.0312 19.8672 21.4531 19.2891 21.6094ZM13.875 9.07031C13.1562 8.49219 12.8516 7.83594 12.9609 7.10156C13.0547 6.53906 13.3516 6.20312 13.8516 6.09375C14.2891 6.01562 14.7734 6.16406 15.3047 6.53906C15.6641 6.78906 15.8984 7.46875 16.0078 8.57812C16.1328 9.6875 16.1719 10.9453 16.125 12.3516C16.0781 13.7578 16.0312 15.1562 15.9844 16.5469C15.9375 17.9219 15.9688 19.1172 16.0781 20.1328C16.2031 21.1328 16.4453 21.6875 16.8047 21.7969C17.5234 22.0312 17.8359 22.4062 17.7422 22.9219C17.6641 23.3438 17.3906 23.6328 16.9219 23.7891C16.4688 23.9297 16.0078 23.8359 15.5391 23.5078C15.2109 23.2578 14.9844 22.6484 14.8594 21.6797C14.75 20.6953 14.7109 19.5703 14.7422 18.3047C14.7891 17.0391 14.8203 15.7734 14.8359 14.5078C14.8672 13.2422 14.8125 12.1016 14.6719 11.0859C14.5312 10.0547 14.2656 9.38281 13.875 9.07031ZM9.58594 10.6641C9.27344 10.8047 8.875 10.6875 8.39062 10.3125C7.92188 9.9375 7.66406 9.50781 7.61719 9.02344C7.57031 8.52344 7.91406 8.07031 8.64844 7.66406C9.67969 7.19531 10.2891 7.35938 10.4766 8.15625C10.6172 8.76562 10.5 9.40625 10.125 10.0781C9.96875 10.375 9.78906 10.5703 9.58594 10.6641Z" fill="white"/>
</svg>
