<svg width="30" height="30" viewBox="0 0 30 30" fill="none" xmlns="http://www.w3.org/2000/svg">
<path d="M9.12891 7.125C10.5352 7.59375 11.707 8.21875 12.6445 9C13.5977 9.78125 14.3242 10.6406 14.8242 11.5781C15.1055 12.0938 15.457 12.8359 15.8789 13.8047C16.3164 14.7734 16.7148 15.625 17.0742 16.3594C17.4492 17.0781 17.9023 17.8672 18.4336 18.7266C18.9648 19.5859 19.5977 20.3672 20.332 21.0703C21.082 21.7578 21.918 22.3438 22.8398 22.8281C21.9023 22.7656 21.043 22.5078 20.2617 22.0547C19.4805 21.6016 18.8086 21.0312 18.2461 20.3438C17.6836 19.6406 17.1445 18.8672 16.6289 18.0234C16.1289 17.1797 15.6133 16.3125 15.082 15.4219C14.5508 14.5156 13.9961 13.6641 13.418 12.8672C12.8398 12.0703 12.1211 11.3438 11.2617 10.6875C10.418 10.0156 9.48828 9.52344 8.47266 9.21094C8.03516 9.07031 7.69922 8.88281 7.46484 8.64844C7.23047 8.41406 7.12109 8.1875 7.13672 7.96875C7.16797 7.75 7.25391 7.54688 7.39453 7.35938C7.55078 7.17188 7.78516 7.0625 8.09766 7.03125C8.42578 6.98438 8.76953 7.01563 9.12891 7.125ZM7.34766 23.1562C6.94141 22.7188 8.49609 21.1641 12.0117 18.4922C12.6211 18.0391 13.8086 17.1641 15.5742 15.8672L16.1836 16.7344C15.4336 17.2344 14.3164 18.1016 12.832 19.3359C11.3477 20.5703 10.1055 21.5625 9.10547 22.3125C8.10547 23.0625 7.51953 23.3438 7.34766 23.1562ZM11.6602 22.8281C13.457 21.1094 14.7383 20 15.5039 19.5C15.8008 19.9844 16.1992 20.5547 16.6992 21.2109C17.2148 21.8516 17.6914 22.3672 18.1289 22.7578L11.6602 22.8281Z" fill="white"/>
</svg>
