<svg width="30" height="30" viewBox="0 0 30 30" fill="none" xmlns="http://www.w3.org/2000/svg">
<path d="M13.5703 16.7344C13.5859 16.2656 13.7031 15.8906 13.9219 15.6094C14.1406 15.3281 14.3984 15.1641 14.6953 15.1172C15.0078 15.0547 15.3125 15.0703 15.6094 15.1641C15.9219 15.2422 16.1875 15.4062 16.4062 15.6562C16.625 15.9062 16.7422 16.2031 16.7578 16.5469C16.7891 17.0469 16.5312 17.4219 15.9844 17.6719C15.4531 17.9062 14.9141 17.9375 14.3672 17.7656C13.8359 17.5938 13.5703 17.25 13.5703 16.7344ZM6.82031 12.5625C7.03906 10.5625 8.03906 9.20312 9.82031 8.48438C11.3047 7.89062 12.8984 7.85156 14.6016 8.36719C16.1328 8.82031 17.1484 9.55469 17.6484 10.5703C17.8672 11.0234 17.9531 11.4922 17.9062 11.9766C17.6406 11.5391 17.2422 11.1406 16.7109 10.7812C16.1953 10.4062 15.6172 10.1172 14.9766 9.91406C14.3516 9.69531 13.6953 9.57812 13.0078 9.5625C12.3203 9.54688 11.6797 9.63281 11.0859 9.82031C10.5078 10.0078 9.99219 10.3594 9.53906 10.875C9.10156 11.3906 8.8125 12.0391 8.67188 12.8203C8.625 13.0391 8.49219 13.2656 8.27344 13.5C8.05469 13.7344 7.82031 13.8984 7.57031 13.9922C7.33594 14.0859 7.13281 14.0234 6.96094 13.8047C6.80469 13.5703 6.75781 13.1562 6.82031 12.5625ZM15.2109 7.45312C14.6953 7.32812 14.3984 7.00781 14.3203 6.49219C14.2422 5.94531 14.4297 5.54687 14.8828 5.29688C15.3359 5.0625 15.9297 5.09375 16.6641 5.39062C17.2422 5.625 17.8125 5.99219 18.375 6.49219C18.9375 6.99219 19.4297 7.52344 19.8516 8.08594C20.2734 8.64844 20.6641 9.20312 21.0234 9.75C21.3828 10.2812 21.7109 10.7344 22.0078 11.1094C22.3203 11.4844 22.5859 11.6953 22.8047 11.7422C23.6016 11.9141 23.9688 12.1484 23.9062 12.4453C23.8594 12.6953 23.5703 12.8438 23.0391 12.8906C22.8359 12.9219 22.6328 12.9141 22.4297 12.8672C22.3047 12.8516 21.9844 12.5938 21.4688 12.0938C20.9531 11.5781 20.3906 11.0156 19.7812 10.4062C19.1875 9.79688 18.4609 9.19531 17.6016 8.60156C16.7422 8.00781 15.9453 7.625 15.2109 7.45312ZM8.36719 17.5078C8.22656 16.9453 8.29688 16.375 8.57812 15.7969C8.875 15.2031 9.30469 14.6641 9.86719 14.1797C10.4453 13.6797 11.0391 13.2422 11.6484 12.8672C12.2734 12.4766 12.9062 12.1406 13.5469 11.8594C12.3281 12.8281 11.4609 13.8672 10.9453 14.9766C10.4453 16.0703 10.3359 16.9062 10.6172 17.4844C10.9141 18.0781 10.8125 18.4766 10.3125 18.6797C9.85938 18.8828 9.39844 18.8203 8.92969 18.4922C8.60156 18.2578 8.41406 17.9297 8.36719 17.5078ZM6.21094 15.8203C6.35156 16.3359 6.53125 16.8047 6.75 17.2266C6.96875 17.6484 7.22656 18.0078 7.52344 18.3047C7.82031 18.6016 8.07812 18.8359 8.29688 19.0078C8.51562 19.1797 8.76562 19.3594 9.04688 19.5469C9.5625 19.875 9.75 20.2266 9.60938 20.6016C9.48438 20.9141 9.21875 21.0391 8.8125 20.9766C8.5625 20.9297 8.3125 20.7969 8.0625 20.5781C7.79688 20.3438 7.625 20.1953 7.54688 20.1328C7.48438 20.0703 7.33594 19.9219 7.10156 19.6875C6.88281 19.4531 6.73438 19.2734 6.65625 19.1484C6.59375 19.0078 6.49219 18.8047 6.35156 18.5391C6.22656 18.2734 6.14844 18.0234 6.11719 17.7891C6.10156 17.5547 6.09375 17.2656 6.09375 16.9219C6.09375 16.5781 6.13281 16.2109 6.21094 15.8203ZM15.0234 21.9609C14.7266 22.1641 14.2578 22.2969 13.6172 22.3594C12.9766 22.4219 12.25 22.3828 11.4375 22.2422C10.625 22.1016 9.88281 21.8594 9.21094 21.5156C9.28906 21.5156 9.50781 21.5312 9.86719 21.5625C10.2422 21.5938 10.4609 21.6094 10.5234 21.6094C10.6016 21.6094 10.7891 21.6172 11.0859 21.6328C11.3828 21.6328 11.5703 21.625 11.6484 21.6094C11.7422 21.5938 11.9062 21.5781 12.1406 21.5625C12.375 21.5312 12.5469 21.4922 12.6562 21.4453C12.7656 21.3828 12.9141 21.3203 13.1016 21.2578C13.2891 21.1797 13.4609 21.0938 13.6172 21C13.7734 20.8906 13.9297 20.7656 14.0859 20.625C14.6953 20.1094 15.125 20.0547 15.375 20.4609C15.5938 20.7891 15.5859 21.1641 15.3516 21.5859C15.2734 21.7422 15.1641 21.8672 15.0234 21.9609ZM17.7656 20.6016C17.7812 20.2109 17.8984 19.9062 18.1172 19.6875C18.3516 19.4688 18.5781 19.4453 18.7969 19.6172C19.0156 19.7891 19.1328 20.1562 19.1484 20.7188C19.1641 21.3594 19.0547 21.9062 18.8203 22.3594C18.5859 22.7969 18.2734 23.1094 17.8828 23.2969C17.5078 23.4844 17.0781 23.6172 16.5938 23.6953C16.1094 23.7734 15.6172 23.7656 15.1172 23.6719C16.0859 23.1875 16.7734 22.7344 17.1797 22.3125C17.5859 21.8906 17.7812 21.3203 17.7656 20.6016ZM18.4922 15.1875C17.8672 14.6719 17.6641 14.1172 17.8828 13.5234C18.0547 13.0703 18.375 12.8516 18.8438 12.8672C19.2656 12.8672 19.6641 13.0859 20.0391 13.5234C20.1953 13.6953 20.3203 13.8516 20.4141 13.9922C20.5234 14.1172 20.6719 14.3047 20.8594 14.5547C21.0469 14.8047 21.2031 15.0469 21.3281 15.2812C21.4531 15.5156 21.5938 15.7969 21.75 16.125C21.9062 16.4375 22.0234 16.7656 22.1016 17.1094C22.1953 17.4375 22.2734 17.7969 22.3359 18.1875C22.3984 18.5781 22.4219 19 22.4062 19.4531C22.4062 19.8906 22.3594 20.3438 22.2656 20.8125C22.1094 18.9531 20.8516 17.0781 18.4922 15.1875ZM19.6406 20.6484C19.2656 20.3828 19.1094 20 19.1719 19.5C19.2031 19.125 19.3516 18.9453 19.6172 18.9609C19.7734 18.9609 19.9375 19.0469 20.1094 19.2188C20.5469 19.625 20.8672 20.3203 21.0703 21.3047C21.2734 22.2734 21.3203 22.9766 21.2109 23.4141C21.2109 23.3828 21.1953 23.2812 21.1641 23.1094C21.1328 22.9375 21.0859 22.7656 21.0234 22.5938C20.9766 22.4219 20.8984 22.2266 20.7891 22.0078C20.6953 21.7734 20.5469 21.5391 20.3438 21.3047C20.1562 21.0703 19.9219 20.8516 19.6406 20.6484Z" fill="white"/>
</svg>
