<svg width="30" height="30" viewBox="0 0 30 30" fill="none" xmlns="http://www.w3.org/2000/svg">
<path d="M13.7812 19.3125C13.6875 18.2656 13.625 17.2891 13.5938 16.3828C13.5781 15.4766 13.6641 14.6641 13.8516 13.9453C14.0547 13.2109 14.3594 12.5938 14.7656 12.0938C15.1875 11.5781 15.7891 11.1875 16.5703 10.9219C17.3516 10.6562 18.3125 10.5312 19.4531 10.5469C19.7188 10.5469 19.9609 10.5312 20.1797 10.5C20.3984 10.4531 20.5938 10.4062 20.7656 10.3594C20.9375 10.3125 21.1016 10.2188 21.2578 10.0781C21.4141 9.9375 21.5391 9.82031 21.6328 9.72656C21.7422 9.63281 21.8516 9.46875 21.9609 9.23438C22.0703 9 22.1562 8.8125 22.2188 8.67188C22.2969 8.51562 22.375 8.27344 22.4531 7.94531C22.5469 7.60156 22.6172 7.33594 22.6641 7.14844C22.7109 6.94531 22.7891 6.63281 22.8984 6.21094C22.9922 5.78906 23.0703 5.46875 23.1328 5.25C23.3516 6.70312 23.3672 7.99219 23.1797 9.11719C23.0078 10.2266 22.6016 11.1016 21.9609 11.7422C21.3203 12.3828 20.5234 12.6719 19.5703 12.6094C18.2266 12.5156 17.2344 12.7344 16.5938 13.2656C15.9688 13.7969 15.6953 14.7422 15.7734 16.1016C15.1953 16.7891 14.7812 17.3203 14.5312 17.6953C14.2969 18.0703 14.0469 18.6094 13.7812 19.3125ZM13.0781 3.09375C12.7344 3.5 12.4531 3.84375 12.2344 4.125C12.0156 4.40625 11.7266 4.78125 11.3672 5.25C11.0234 5.71875 10.7422 6.125 10.5234 6.46875C10.3203 6.8125 10.0938 7.21094 9.84375 7.66406C9.59375 8.11719 9.42969 8.50781 9.35156 8.83594C9.27344 9.16406 9.21094 9.50781 9.16406 9.86719C9.13281 10.2266 9.20312 10.5234 9.375 10.7578C9.54688 10.9922 9.77344 11.2109 10.0547 11.4141C10.3516 11.6016 10.7656 11.7344 11.2969 11.8125C11.8438 11.875 12.4844 11.8906 13.2188 11.8594C12.1094 12.5 11.2969 13.1797 10.7812 13.8984C10.2812 14.6172 10.0625 15.3438 10.125 16.0781C10.2031 16.7969 10.5078 17.5156 11.0391 18.2344C11.5703 18.9375 12.3203 19.6406 13.2891 20.3438C13.5859 19.2812 13.8984 18.3984 14.2266 17.6953C14.5703 16.9922 14.9141 16.4688 15.2578 16.125C15.6172 15.7656 15.9766 15.5078 16.3359 15.3516C16.7109 15.1953 17.1016 15.1094 17.5078 15.0938C17.9141 15.0625 18.3203 15.0547 18.7266 15.0703C19.1484 15.0703 19.5938 15.0312 20.0625 14.9531C20.5469 14.8594 21.0234 14.7109 21.4922 14.5078C21.9609 14.3047 22.4688 13.9453 23.0156 13.4297C23.5781 12.9141 24.1328 12.25 24.6797 11.4375C24.2422 12.5625 23.7891 13.5 23.3203 14.25C22.8516 14.9844 22.3906 15.5078 21.9375 15.8203C21.5 16.1328 21.0625 16.3594 20.625 16.5C20.1875 16.625 19.75 16.6953 19.3125 16.7109C18.8906 16.7266 18.4844 16.7578 18.0938 16.8047C17.7188 16.8516 17.3359 16.9922 16.9453 17.2266C16.5703 17.4609 16.2422 17.8125 15.9609 18.2812C15.3828 19.1875 14.9922 20.3672 14.7891 21.8203C14.5859 23.2734 14.4922 25.0547 14.5078 27.1641C14.2891 26.0391 13.9531 25.0391 13.5 24.1641C13.0625 23.2891 12.5703 22.5781 12.0234 22.0312C11.4766 21.4844 10.8906 20.9922 10.2656 20.5547C9.65625 20.1172 9.0625 19.7109 8.48438 19.3359C7.92188 18.9609 7.40625 18.5703 6.9375 18.1641C6.46875 17.7422 6.08594 17.2266 5.78906 16.6172C5.50781 15.9922 5.35938 15.2812 5.34375 14.4844C5.3125 13.3906 5.57812 12.1562 6.14062 10.7812C6.70312 9.40625 7.39062 8.16406 8.20312 7.05469C9.01562 5.92969 9.875 4.98437 10.7812 4.21875C11.6875 3.45313 12.4531 3.07813 13.0781 3.09375ZM8.95312 14.5078C8.95312 14.0703 8.79688 13.7266 8.48438 13.4766C8.1875 13.2266 7.86719 13.1875 7.52344 13.3594C7.19531 13.5156 7.01562 13.8672 6.98438 14.4141C6.95312 14.7109 7 14.9844 7.125 15.2344C7.25 15.4688 7.40625 15.625 7.59375 15.7031C7.79688 15.7812 7.99219 15.8125 8.17969 15.7969C8.38281 15.7656 8.55469 15.6406 8.69531 15.4219C8.85156 15.1875 8.9375 14.8828 8.95312 14.5078Z" fill="white"/>
</svg>
