<svg width="30" height="30" viewBox="0 0 30 30" fill="none" xmlns="http://www.w3.org/2000/svg">
<path d="M11.3672 3.16406C11.0234 6.53906 12.1953 8.67188 14.8828 9.5625C14.3516 9.75 13.7969 9.83594 13.2188 9.82031C11.6875 12.8047 9.66406 15.8281 7.14844 18.8906C9.08594 18.9688 10.3672 19.4844 10.9922 20.4375C11.5391 21.2656 11.3828 22.1641 10.5234 23.1328C9.42969 24.3359 7.50781 25.2578 4.75781 25.8984C6.77344 24.7578 8.125 23.7734 8.8125 22.9453C9.5 22.1016 9.49219 21.4453 8.78906 20.9766C8.10156 20.5078 6.72656 20.2344 4.66406 20.1562C8.02344 16.1719 10.4609 12.6797 11.9766 9.67969C11.3047 9.11719 10.8438 8.46094 10.5938 7.71094C10.3594 6.96094 10.3125 6.21094 10.4531 5.46094C10.6094 4.71094 10.9141 3.94531 11.3672 3.16406ZM20.7656 4.125C21.5156 5.21875 21.7578 6.42188 21.4922 7.73438C21.2266 9.04688 20.5391 9.96875 19.4297 10.5C20.2109 12.3125 20.9844 13.7656 21.75 14.8594C22.5312 15.9531 23.7266 17.375 25.3359 19.125C24.3047 19.5469 23.4766 19.9609 22.8516 20.3672C22.2266 20.7578 21.7812 21.125 21.5156 21.4688C21.2656 21.8125 21.1797 22.1875 21.2578 22.5938C21.3359 22.9844 21.5 23.3594 21.75 23.7188C22 24.0625 22.375 24.4688 22.875 24.9375C21.7344 24.75 20.8516 24.4688 20.2266 24.0938C19.6172 23.7344 19.2812 23.3438 19.2188 22.9219C19.1719 22.5 19.2578 22.0625 19.4766 21.6094C19.7109 21.1406 20.0469 20.7188 20.4844 20.3438C20.9375 19.9531 21.4062 19.625 21.8906 19.3594C22.3906 19.0781 22.8359 18.8984 23.2266 18.8203C21.9609 17.1953 20.9531 15.7891 20.2031 14.6016C19.4688 13.4141 18.8516 12.1172 18.3516 10.7109C17.9297 10.7266 17.4141 10.5156 16.8047 10.0781C18.1484 9.78125 19.1562 9.0625 19.8281 7.92188C20.5156 6.78125 20.8281 5.51563 20.7656 4.125ZM15.0234 20.2969C15.7422 19.75 16.1016 19.1641 16.1016 18.5391C16.1172 17.9141 15.7656 17.4297 15.0469 17.0859C14.4531 16.8047 14 16.4219 13.6875 15.9375C13.3906 15.4531 13.2578 14.9688 13.2891 14.4844C13.3359 14 13.4609 13.5469 13.6641 13.125C13.8672 12.7031 14.1719 12.375 14.5781 12.1406C14.9844 11.9062 15.4141 11.8281 15.8672 11.9062C16.2109 11.9688 16.4219 12.1172 16.5 12.3516C16.5938 12.5703 16.5547 12.7812 16.3828 12.9844C16.2109 13.1719 15.9922 13.2578 15.7266 13.2422C15.3203 13.2109 15.0078 13.3672 14.7891 13.7109C14.5703 14.0547 14.5469 14.4844 14.7188 15C14.8906 15.5156 15.2891 15.9609 15.9141 16.3359C16.4453 16.6484 16.7969 17.1484 16.9688 17.8359C17.1406 18.5078 17.0938 19.1797 16.8281 19.8516C16.5781 20.5234 16.1484 21.0078 15.5391 21.3047C15.0078 21.5547 14.6797 21.5312 14.5547 21.2344C14.4453 20.9375 14.6016 20.625 15.0234 20.2969Z" fill="white"/>
</svg>
