<svg width="30" height="30" viewBox="0 0 30 30" fill="none" xmlns="http://www.w3.org/2000/svg">
<path d="M6.83203 22.8281C7.00391 20.75 7.04297 18.625 6.94922 16.4531C6.87109 14.2656 6.78516 12.2422 6.69141 10.3828C6.61328 8.50781 6.62109 7.48438 6.71484 7.3125C7.24609 6.3125 7.85547 5.73437 8.54297 5.57812C9.04297 5.46875 9.35547 5.64062 9.48047 6.09375C9.52734 6.26563 9.53516 6.46094 9.50391 6.67969C9.47266 6.83594 9.32422 7.14844 9.05859 7.61719C8.79297 8.08594 8.65234 8.41406 8.63672 8.60156C8.58984 8.99219 8.55859 10.1562 8.54297 12.0938C8.54297 14.0156 8.53516 16.0859 8.51953 18.3047C8.51953 20.5078 8.50391 22.0078 8.47266 22.8047C8.44141 23.6328 8.20703 24.1328 7.76953 24.3047C7.41016 24.4453 7.13672 24.3047 6.94922 23.8828C6.82422 23.6016 6.78516 23.25 6.83203 22.8281ZM13.2773 21.6562C13.2773 21.2812 13.418 21.0312 13.6992 20.9062C13.9961 20.7656 14.2852 20.7734 14.5664 20.9297C14.8477 21.0859 14.9883 21.3438 14.9883 21.7031C14.9727 22.0156 14.8242 22.2344 14.543 22.3594C14.2617 22.4844 13.9805 22.4766 13.6992 22.3359C13.418 22.1953 13.2773 21.9688 13.2773 21.6562ZM12.0586 21.6562C12.043 22.2656 12.2461 22.75 12.668 23.1094C13.0898 23.4531 13.5586 23.6328 14.0742 23.6484C14.5898 23.6641 15.0664 23.5 15.5039 23.1562C15.9414 22.8125 16.168 22.3359 16.1836 21.7266C16.1992 21.2109 16.0664 20.7734 15.7852 20.4141C15.5039 20.0391 15.1602 19.8125 14.7539 19.7344C14.3477 19.6406 13.9414 19.6328 13.5352 19.7109C13.1289 19.7734 12.7773 19.9844 12.4805 20.3438C12.1992 20.6875 12.0586 21.125 12.0586 21.6562ZM8.47266 9.32812C10.0195 10.6094 12.3789 12.3125 15.5508 14.4375C18.7383 16.5625 20.5742 17.6094 21.0586 17.5781C21.0898 17.6719 21.1289 17.7969 21.1758 17.9531C21.2383 18.0938 21.3086 18.3203 21.3867 18.6328C21.4805 18.9453 21.4961 19.1875 21.4336 19.3594C21.3867 19.5156 21.2617 19.5469 21.0586 19.4531C20.8555 19.375 19.8477 18.7422 18.0352 17.5547C16.2227 16.3672 14.3242 15.1797 12.3398 13.9922C10.3711 12.7891 9.02734 12.1016 8.30859 11.9297L8.33203 11.2734C8.33203 9.97656 8.37891 9.32812 8.47266 9.32812ZM22.0898 10.3828C22.1055 11.5391 22.0898 12.8203 22.043 14.2266C21.9961 15.6172 21.9336 17.1641 21.8555 18.8672C21.7773 20.5547 21.7305 21.7422 21.7148 22.4297C21.6836 23.0703 21.5195 23.5156 21.2227 23.7656C20.9414 24 20.668 23.9766 20.4023 23.6953C20.1367 23.3984 20.0195 22.9219 20.0508 22.2656C20.082 21.4531 20.1602 19.8438 20.2852 17.4375C20.4102 15.0156 20.5195 12.7891 20.6133 10.7578C20.7227 8.72656 20.7852 7.61719 20.8008 7.42969C20.832 6.39844 21.1445 5.78125 21.7383 5.57812C22.2227 5.40625 22.6367 5.5625 22.9805 6.04688C23.5273 6.76562 23.5195 7.73438 22.957 8.95312C22.7383 9.42188 22.4492 9.89844 22.0898 10.3828ZM21.1523 8.78906C21.2305 8.72656 21.2773 8.875 21.293 9.23438C21.293 9.48438 21.2852 9.90625 21.2695 10.5L21.293 11.0625C20.7773 11.2031 19.5117 11.8828 17.4961 13.1016C15.4961 14.3047 13.5352 15.5156 11.6133 16.7344C9.70703 17.9531 8.64453 18.6094 8.42578 18.7031C8.01953 18.8594 7.91016 18.5703 8.09766 17.8359C8.33203 17.1641 8.44922 16.8281 8.44922 16.8281C8.91797 16.875 10.7539 15.8672 13.957 13.8047C17.1602 11.7266 19.5586 10.0547 21.1523 8.78906Z" fill="white"/>
</svg>
