<svg width="30" height="30" viewBox="0 0 30 30" fill="none" xmlns="http://www.w3.org/2000/svg">
<path d="M5.32031 16.5469C5.32031 16.375 5.35156 16.2422 5.41406 16.1484C5.47656 16.0391 5.57031 15.9922 5.69531 16.0078C6.27344 16.1172 6.92969 16.1406 7.66406 16.0781C8.39844 16.0156 9.0625 16.0234 9.65625 16.1016C9.92188 16.1328 10.1016 16.2344 10.1953 16.4062C10.3047 16.5781 10.3047 16.7422 10.1953 16.8984C10.0859 17.0547 9.89844 17.1406 9.63281 17.1562C9.14844 17.1875 8.73438 17.3203 8.39062 17.5547C8.04688 17.7891 7.79688 18.1172 7.64062 18.5391C7.5 18.9453 7.52344 19.4688 7.71094 20.1094C7.89844 20.75 8.26562 21.4453 8.8125 22.1953C9.15625 22.6641 9.23438 22.9922 9.04688 23.1797C8.875 23.3516 8.58594 23.2969 8.17969 23.0156C7.41406 22.5156 6.75 21.6172 6.1875 20.3203C5.625 19.0234 5.33594 17.7656 5.32031 16.5469ZM5.55469 13.7812C5.66406 12.625 6.46875 10.6562 7.96875 7.875C8.01562 7.76563 8.05469 7.6875 8.08594 7.64062C8.27344 7.28125 8.51562 7.07031 8.8125 7.00781C9.125 6.92969 9.33594 7.00781 9.44531 7.24219C9.57031 7.47656 9.53906 7.82031 9.35156 8.27344C8.96094 9.07031 8.67969 9.78125 8.50781 10.4062C8.33594 11.0156 8.25781 11.5078 8.27344 11.8828C8.28906 12.2422 8.36719 12.5469 8.50781 12.7969C8.66406 13.0469 8.84375 13.2266 9.04688 13.3359C9.25 13.4297 9.48438 13.4922 9.75 13.5234C10.125 13.5703 10.3672 13.7344 10.4766 14.0156C10.5859 14.2812 10.5469 14.5234 10.3594 14.7422C10.1719 14.9609 9.89844 15.0312 9.53906 14.9531C8.77344 14.7812 8.16406 14.6797 7.71094 14.6484C7.27344 14.6172 6.75781 14.6562 6.16406 14.7656C5.82031 14.8438 5.60938 14.7734 5.53125 14.5547C5.46875 14.3359 5.47656 14.0781 5.55469 13.7812ZM13.7109 6.60938C13.7109 6.40625 13.6172 6.125 13.4297 5.76562C13.2578 5.39062 13.1016 5.04688 12.9609 4.73438C12.8203 4.42187 12.7266 4.11719 12.6797 3.82031C12.6328 3.50781 12.75 3.26563 13.0312 3.09375C13.3281 2.92187 13.8047 2.84375 14.4609 2.85938C14.9922 2.875 15.3672 2.97656 15.5859 3.16406C15.8203 3.33594 15.9062 3.57812 15.8438 3.89062C15.7969 4.20313 15.7109 4.52344 15.5859 4.85156C15.4609 5.17969 15.3203 5.53906 15.1641 5.92969C15.0234 6.30469 14.9609 6.60938 14.9766 6.84375C14.9766 6.96875 14.9297 8.41406 14.8359 11.1797C14.7578 13.9453 14.6719 16.8203 14.5781 19.8047C14.5 22.7891 14.4609 24.5391 14.4609 25.0547C14.4609 25.6016 14.3672 25.9453 14.1797 26.0859C14.0078 26.2266 13.8359 26.1797 13.6641 25.9453C13.4922 25.7266 13.4062 25.4531 13.4062 25.125C13.4062 24.9531 13.4531 21.9688 13.5469 16.1719C13.6562 10.375 13.7109 7.1875 13.7109 6.60938ZM19.8984 6.28125C20.6484 6.01562 21.3516 6.01562 22.0078 6.28125C22.7266 6.5625 23.25 7.09375 23.5781 7.875C23.875 8.65625 23.9297 9.39844 23.7422 10.1016C23.5703 10.7891 23.2109 11.3047 22.6641 11.6484C22.0391 12.0234 21.3906 12.0234 20.7188 11.6484C20.375 11.4609 20.1172 11.1719 19.9453 10.7812C19.7734 10.3906 19.7422 9.95312 19.8516 9.46875C19.8672 9.34375 19.9375 9.23438 20.0625 9.14062C20.1875 9.04688 20.3203 9 20.4609 9C20.6172 9 20.7578 9.0625 20.8828 9.1875C21.0078 9.3125 21.0703 9.45312 21.0703 9.60938V9.75C21.0078 10.0625 20.9922 10.2656 21.0234 10.3594C21.0547 10.4531 21.1406 10.5312 21.2812 10.5938C21.3906 10.6562 21.5312 10.6875 21.7031 10.6875C21.875 10.6875 21.9844 10.6719 22.0312 10.6406C22.3125 10.4688 22.5 10.1875 22.5938 9.79688C22.7031 9.40625 22.6562 8.92188 22.4531 8.34375C22.2656 7.875 21.9609 7.5625 21.5391 7.40625C21.1797 7.26562 20.7734 7.28125 20.3203 7.45312C19.8359 7.625 19.4219 7.9375 19.0781 8.39062C18.75 8.84375 18.5859 9.40625 18.5859 10.0781C18.5859 10.7188 18.6562 11.2344 18.7969 11.625C18.9375 12.0156 19.1641 12.3984 19.4766 12.7734C19.5703 12.8984 19.8594 13.2031 20.3438 13.6875C20.8438 14.1719 21.2109 14.5938 21.4453 14.9531C21.8359 15.5469 22.0547 16.2031 22.1016 16.9219C22.1641 17.625 22.0391 18.3203 21.7266 19.0078C21.4297 19.6172 20.9375 20.1094 20.25 20.4844C19.5781 20.8594 18.7578 21.0938 17.7891 21.1875V22.9688C18.8828 22.8594 19.8672 22.5547 20.7422 22.0547C21.6328 21.5547 22.3125 20.9141 22.7812 20.1328C23.1406 19.5547 23.3672 18.9609 23.4609 18.3516C23.5547 17.7422 23.4922 17.1016 23.2734 16.4297C23.0703 15.7578 22.6953 15.125 22.1484 14.5312C22.0078 14.4219 21.9375 14.2734 21.9375 14.0859C21.9375 13.9141 21.9922 13.7734 22.1016 13.6641C22.2266 13.5391 22.375 13.4766 22.5469 13.4766C22.75 13.4766 22.9062 13.5547 23.0156 13.7109C23.6719 14.4297 24.1328 15.2109 24.3984 16.0547C24.6641 16.8984 24.7422 17.7188 24.6328 18.5156C24.5234 19.3125 24.2578 20.0625 23.8359 20.7656C23.1797 21.8438 22.2656 22.7109 21.0938 23.3672C19.9219 24.0078 18.625 24.3281 17.2031 24.3281H16.5703L16.5938 23.6953C16.625 22.3359 16.625 21.3438 16.5938 20.7188L16.5703 20.1328H17.2031C19 20.1328 20.1641 19.5781 20.6953 18.4688C20.8984 18.0156 20.9688 17.5312 20.9062 17.0156C20.8594 16.4844 20.6953 16.0078 20.4141 15.5859C20.2422 15.3203 19.9375 14.9766 19.5 14.5547C19.0781 14.1172 18.7734 13.7891 18.5859 13.5703C17.7734 12.5859 17.375 11.4062 17.3906 10.0312C17.4062 9.10938 17.6484 8.32031 18.1172 7.66406C18.5859 6.99219 19.1797 6.53125 19.8984 6.28125Z" fill="white"/>
</svg>
