<svg width="30" height="30" viewBox="0 0 30 30" fill="none" xmlns="http://www.w3.org/2000/svg">
<path d="M14.2148 19.5469C14.8555 19.6094 15.418 19.8672 15.9023 20.3203C16.3867 20.7578 16.6602 21.3203 16.7227 22.0078C16.7852 22.8047 16.5195 23.4922 15.9258 24.0703C15.4258 24.5703 14.8164 24.8594 14.0977 24.9375C13.332 25.0156 12.6914 24.8047 12.1758 24.3047C11.6133 23.7578 11.3789 22.9922 11.4727 22.0078C11.5664 21.1172 11.8789 20.4531 12.4102 20.0156C12.8633 19.6406 13.4648 19.4844 14.2148 19.5469ZM14.0508 20.9297C13.7539 20.8984 13.5039 20.9688 13.3008 21.1406C13.0664 21.3125 12.9336 21.6406 12.9023 22.125C12.8398 22.6719 12.9258 23.0625 13.1602 23.2969C13.3164 23.4688 13.5898 23.5391 13.9805 23.5078C14.3398 23.4766 14.668 23.3281 14.9648 23.0625C15.1992 22.8438 15.3086 22.5312 15.293 22.125C15.2617 21.7969 15.1211 21.5234 14.8711 21.3047C14.6367 21.0859 14.3633 20.9609 14.0508 20.9297ZM21.5977 4.64062H21.668C21.8711 4.64062 22.0352 4.71094 22.1602 4.85156C22.3008 4.99219 22.3711 5.16406 22.3711 5.36719V5.39062V13.8047C22.3711 14.0078 22.3008 14.1797 22.1602 14.3203C22.0352 14.4453 21.8711 14.5078 21.668 14.5078C21.4805 14.5078 21.332 14.4609 21.2227 14.3672L14.4258 9.04688L14.3555 20.1328V20.2266C14.3555 20.4297 14.2852 20.6016 14.1445 20.7422C14.0195 20.8672 13.8555 20.9297 13.6523 20.9297C13.4492 20.9297 13.2773 20.8672 13.1367 20.7422C12.9961 20.6016 12.9258 20.4297 12.9258 20.2266V20.1094L12.9961 7.54688C12.9961 7.34375 13.0664 7.17188 13.207 7.03125C13.3477 6.89062 13.5195 6.82031 13.7227 6.82031C13.8789 6.82031 14.0273 6.875 14.168 6.98438L20.9648 12.3047V5.39062V5.36719C20.9648 5.19531 21.0273 5.03906 21.1523 4.89844C21.2773 4.74219 21.4258 4.65625 21.5977 4.64062ZM20.0273 3.60938C20.0586 3.59375 20.1133 3.58594 20.1914 3.58594C20.3008 3.58594 20.418 3.625 20.543 3.70312C20.6836 3.78125 20.7852 3.875 20.8477 3.98438C21.3945 4.96875 21.7461 6 21.9023 7.07812C22.0742 8.14062 22.0195 9.14062 21.7383 10.0781C21.582 10.5469 21.3164 10.9609 20.9414 11.3203C20.582 11.6641 20.1602 11.8672 19.6758 11.9297C18.8633 12.0391 17.8633 11.7344 16.6758 11.0156C16.1602 11.8125 15.5039 12.4688 14.707 12.9844C13.9102 13.5 13.082 13.7812 12.2227 13.8281C11.0508 13.875 10.1523 13.4766 9.52734 12.6328C8.85547 11.7266 8.63672 10.4062 8.87109 8.67188C8.88672 8.48438 8.96484 8.32812 9.10547 8.20312C9.24609 8.0625 9.41016 7.99219 9.59766 7.99219C9.80078 7.99219 9.97266 8.0625 10.1133 8.20312C10.2539 8.34375 10.3242 8.51562 10.3242 8.71875C10.3242 8.73438 10.3164 8.75781 10.3008 8.78906C10.3008 8.82031 10.3008 8.84375 10.3008 8.85938C10.1133 10.2188 10.2383 11.1875 10.6758 11.7656C11.0195 12.2188 11.5117 12.4219 12.1523 12.375C12.8242 12.3438 13.543 12.0703 14.3086 11.5547C15.0898 11.0234 15.6211 10.4453 15.9023 9.82031L16.2305 9.04688L16.9336 9.51562C18.0117 10.2656 18.8633 10.5938 19.4883 10.5C19.707 10.4688 19.8789 10.3906 20.0039 10.2656C20.1445 10.125 20.2617 9.90625 20.3555 9.60938C20.5586 9.0625 20.582 8.29688 20.4258 7.3125C20.2695 6.3125 19.9805 5.42188 19.5586 4.64062C19.5117 4.54688 19.4883 4.42969 19.4883 4.28906C19.4883 4.13281 19.5352 3.99219 19.6289 3.86719C19.7383 3.72656 19.8711 3.64063 20.0273 3.60938ZM13.1133 16.1953L13.5117 18.3047C12.918 18.3672 12.3867 18.3984 11.918 18.3984C11.4492 18.3984 11.043 18.375 10.6992 18.3281C10.3555 18.2812 10.0508 18.1875 9.78516 18.0469C9.51953 17.8906 9.29297 17.7422 9.10547 17.6016C8.93359 17.4453 8.76172 17.2188 8.58984 16.9219C8.41797 16.625 8.27734 16.3594 8.16797 16.125C8.05859 15.8906 7.92578 15.5625 7.76953 15.1406C7.61328 14.6562 7.60547 14.3047 7.74609 14.0859C7.90234 13.8516 8.13672 13.7812 8.44922 13.875C8.77734 13.9531 9.02734 14.1719 9.19922 14.5312C9.65234 15.5312 10.1289 16.1328 10.6289 16.3359C11.1289 16.5391 11.957 16.4922 13.1133 16.1953Z" fill="white"/>
</svg>
