<svg width="30" height="30" viewBox="0 0 30 30" fill="none" xmlns="http://www.w3.org/2000/svg">
<path d="M8.91797 3.35156C9.01172 4.36719 9.37891 5.44531 10.0195 6.58594C10.6602 7.72656 11.4023 8.67969 12.2461 9.44531C13.0898 10.1953 13.8398 10.5703 14.4961 10.5703C14.9805 10.5703 15.543 10.4062 16.1836 10.0781C16.8398 9.73438 17.4258 9.35938 17.9414 8.95312C18.457 8.53125 18.9805 8.14844 19.5117 7.80469C20.043 7.46094 20.4492 7.28906 20.7305 7.28906C21.6836 7.25781 22.2773 7.67188 22.5117 8.53125C22.6992 9.21875 22.6133 9.82812 22.2539 10.3594C21.8633 10.9531 21.3789 11.0312 20.8008 10.5938C20.5352 10.3906 20.2773 10.0703 20.0273 9.63281C19.6055 10.0547 18.7227 10.6094 17.3789 11.2969C16.0508 11.9844 15.1133 12.3281 14.5664 12.3281C14.0977 12.3281 13.3867 12.0469 12.4336 11.4844C11.4961 10.9062 10.6289 10.2891 9.83203 9.63281C9.05078 8.97656 8.56641 8.5 8.37891 8.20312C8.11328 7.75 8.05078 6.94531 8.19141 5.78906C8.34766 4.61719 8.58984 3.80469 8.91797 3.35156ZM8.35547 13.6875C8.08984 13.6562 7.86328 13.3906 7.67578 12.8906C7.48828 12.375 7.39453 11.7891 7.39453 11.1328C7.41016 10.4609 7.54297 9.91406 7.79297 9.49219C7.94922 10.0703 8.51953 10.7812 9.50391 11.625C10.4883 12.4688 11.4648 13.1797 12.4336 13.7578C13.418 14.3359 14.0586 14.625 14.3555 14.625C14.668 14.625 15.2227 14.4062 16.0195 13.9688C16.8164 13.5312 17.5352 13.1094 18.1758 12.7031C18.9727 12.1719 19.6055 11.9297 20.0742 11.9766C20.543 12.0234 20.8711 12.2344 21.0586 12.6094C21.2461 12.9688 21.3242 13.4609 21.293 14.0859C21.2461 14.9922 20.9492 15.6641 20.4023 16.1016C19.9023 16.5078 19.4727 16.4688 19.1133 15.9844C18.8945 15.6875 18.7539 15.2266 18.6914 14.6016C18.3164 14.5547 17.832 14.6953 17.2383 15.0234C16.6445 15.3359 16.0664 15.6719 15.5039 16.0312C14.957 16.375 14.5664 16.5469 14.332 16.5469C14.1133 16.5469 13.8164 16.4219 13.4414 16.1719C13.082 15.9062 12.6992 15.6094 12.293 15.2812C11.9023 14.9531 11.3477 14.6328 10.6289 14.3203C9.92578 13.9922 9.16797 13.7812 8.35547 13.6875ZM17.4492 22.5938C16.8867 22.7031 16.3945 22.7422 15.9727 22.7109C15.5508 22.6797 15.1758 22.6328 14.8477 22.5703C14.5195 22.5078 14.2383 22.3906 14.0039 22.2188C13.7852 22.0469 13.5977 21.875 13.4414 21.7031C13.2852 21.5312 13.1602 21.3203 13.0664 21.0703C12.9883 20.8203 12.9258 20.5938 12.8789 20.3906C12.832 20.1719 12.8086 19.9297 12.8086 19.6641C12.8086 19.3984 12.8164 19.1719 12.832 18.9844C12.8477 18.7969 12.8789 18.6016 12.9258 18.3984C12.9727 18.0234 13.1133 17.7734 13.3477 17.6484C13.5977 17.5234 13.8164 17.5469 14.0039 17.7188C14.1914 17.875 14.2695 18.125 14.2383 18.4688C14.207 18.7812 14.1836 19.1016 14.168 19.4297C14.168 19.7578 14.2305 20.0859 14.3555 20.4141C14.4961 20.7422 14.6758 21.0469 14.8945 21.3281C15.1133 21.6094 15.4414 21.8672 15.8789 22.1016C16.3164 22.3203 16.8398 22.4844 17.4492 22.5938ZM17.2852 23.6719C16.332 24.2031 15.457 24.5391 14.6602 24.6797C13.8633 24.8203 13.1992 24.7969 12.668 24.6094C12.1523 24.4375 11.6914 24.1484 11.2852 23.7422C10.8789 23.3203 10.5586 22.8672 10.3242 22.3828C10.1055 21.8984 9.91797 21.3672 9.76172 20.7891C9.62109 20.2109 9.52734 19.7266 9.48047 19.3359C9.43359 18.9453 9.41016 18.5781 9.41016 18.2344C9.39453 17.9844 9.32422 17.7422 9.19922 17.5078C9.08984 17.2578 8.96484 17.0547 8.82422 16.8984C8.69922 16.7422 8.58203 16.5938 8.47266 16.4531C8.37891 16.2969 8.33984 16.1484 8.35547 16.0078C8.37109 15.8516 8.47266 15.6953 8.66016 15.5391C9.09766 15.1484 9.58203 15.25 10.1133 15.8438C10.6602 16.4375 10.9727 17.0938 11.0508 17.8125C11.0508 17.8906 11.043 18.0625 11.0273 18.3281C11.0273 18.5938 11.0195 18.8672 11.0039 19.1484C11.0039 19.4141 11.0117 19.7422 11.0273 20.1328C11.0586 20.5078 11.1211 20.8594 11.2148 21.1875C11.3086 21.5156 11.4414 21.8594 11.6133 22.2188C11.8008 22.5625 12.043 22.8516 12.3398 23.0859C12.6523 23.3047 13.0273 23.5078 13.4648 23.6953C13.918 23.8672 14.457 23.9453 15.082 23.9297C15.707 23.8984 16.4414 23.8125 17.2852 23.6719Z" fill="white"/>
</svg>
