<svg width="30" height="30" viewBox="0 0 30 30" fill="none" xmlns="http://www.w3.org/2000/svg">
<path d="M15.1172 5.88281C15.2891 6.80469 15.6484 7.86719 16.1953 9.07031C16.7578 10.2578 17.3125 11.3203 17.8594 12.2578C18.4062 13.1797 18.8984 14.1719 19.3359 15.2344C19.7734 16.2969 19.9844 17.2109 19.9688 17.9766C19.9688 19.5078 19.6172 20.8047 18.9141 21.8672C18.2266 22.9141 17.3906 23.5547 16.4062 23.7891C15.4219 24.0234 14.4375 24.0156 13.4531 23.7656C12.4844 23.5 11.6562 22.8281 10.9688 21.75C10.2969 20.6562 9.97656 19.3125 10.0078 17.7188C10.0234 16.9844 10.1797 16.2188 10.4766 15.4219C10.7734 14.6094 11.1406 13.8281 11.5781 13.0781C12.0312 12.3125 12.4922 11.5547 12.9609 10.8047C13.4297 10.0547 13.8672 9.24219 14.2734 8.36719C14.6797 7.49219 14.9609 6.66406 15.1172 5.88281ZM15.0469 9.86719C14.9844 10.2734 14.7891 10.8125 14.4609 11.4844C14.1484 12.1406 13.8281 12.7734 13.5 13.3828C13.1719 13.9766 12.875 14.6797 12.6094 15.4922C12.3438 16.2891 12.2188 17.0469 12.2344 17.7656C12.25 18.5312 12.4062 19.1875 12.7031 19.7344C13 20.2812 13.3594 20.6719 13.7812 20.9062C14.2031 21.1406 14.6641 21.25 15.1641 21.2344C15.6641 21.2188 16.1328 21.0859 16.5703 20.8359C17.0078 20.5859 17.375 20.2031 17.6719 19.6875C17.9844 19.1562 18.1562 18.5469 18.1875 17.8594C18.2188 17.2812 18.0938 16.6016 17.8125 15.8203C17.5469 15.0234 17.2344 14.3047 16.875 13.6641C16.5312 13.0078 16.1719 12.3125 15.7969 11.5781C15.4219 10.8438 15.1719 10.2734 15.0469 9.86719ZM9 6.72656C9.48438 6.71094 9.94531 6.85156 10.3828 7.14844C10.8359 7.44531 11.1641 7.82031 11.3672 8.27344C11.5703 8.71094 11.6641 9.15625 11.6484 9.60938C11.6484 10.0469 11.4141 10.4297 10.9453 10.7578C10.4922 11.0859 9.84375 11.2578 9 11.2734C9.09375 11.4766 9.19531 11.6719 9.30469 11.8594C9.42969 12.0312 9.58594 12.2266 9.77344 12.4453C9.96094 12.6484 10.1562 12.7969 10.3594 12.8906C10.5781 12.9844 10.8281 13.0469 11.1094 13.0781C11.3906 13.0938 11.6797 13.0156 11.9766 12.8438L10.5 16.5C10.4062 15.9375 10.1641 15.3438 9.77344 14.7188C9.39844 14.0781 9.02344 13.4688 8.64844 12.8906C8.27344 12.2969 8.04688 11.7578 7.96875 11.2734C7.48438 11.2422 7.10156 10.8594 6.82031 10.125C6.55469 9.39062 6.59375 8.65625 6.9375 7.92188C7.29688 7.17188 7.98438 6.77344 9 6.72656ZM9.11719 7.89844C8.83594 7.89844 8.58594 7.98437 8.36719 8.15625C8.16406 8.3125 8.03125 8.50781 7.96875 8.74219C7.92188 8.97656 7.91406 9.21094 7.94531 9.44531C7.99219 9.67969 8.125 9.875 8.34375 10.0312C8.5625 10.1719 8.84375 10.2344 9.1875 10.2188C9.60938 10.2031 9.90625 10.0703 10.0781 9.82031C10.2656 9.57031 10.3281 9.30469 10.2656 9.02344C10.2188 8.74219 10.0859 8.48438 9.86719 8.25C9.64844 8.01562 9.39844 7.89844 9.11719 7.89844ZM21.0234 6.9375C21.6641 6.96875 22.1719 7.125 22.5469 7.40625C22.9219 7.6875 23.1484 8.02344 23.2266 8.41406C23.3047 8.80469 23.3125 9.21094 23.25 9.63281C23.1875 10.0391 23.0547 10.4062 22.8516 10.7344C22.6641 11.0625 22.4531 11.2891 22.2188 11.4141C22.1562 11.8359 21.9219 12.3516 21.5156 12.9609C21.125 13.5547 20.7188 14.1875 20.2969 14.8594C19.8906 15.5312 19.6328 16.1484 19.5234 16.7109L18.0469 13.0547C18.3594 13.2266 18.6562 13.3047 18.9375 13.2891C19.2188 13.2578 19.4609 13.1953 19.6641 13.1016C19.8828 13.0078 20.0859 12.8594 20.2734 12.6562C20.4609 12.4375 20.6094 12.2422 20.7188 12.0703C20.8438 11.8828 20.9531 11.6875 21.0469 11.4844C20.2031 11.4688 19.5469 11.2969 19.0781 10.9688C18.625 10.6406 18.3906 10.2578 18.375 9.82031C18.375 9.36719 18.4766 8.92188 18.6797 8.48438C18.8828 8.03125 19.2031 7.65625 19.6406 7.35938C20.0938 7.0625 20.5547 6.92188 21.0234 6.9375ZM20.9062 8.10938C20.625 8.10938 20.375 8.22656 20.1562 8.46094C19.9531 8.69531 19.8203 8.95312 19.7578 9.23438C19.6953 9.51562 19.7578 9.78125 19.9453 10.0312C20.1328 10.2812 20.4297 10.4141 20.8359 10.4297C21.1797 10.4453 21.4609 10.3828 21.6797 10.2422C21.8984 10.0859 22.0312 9.89062 22.0781 9.65625C22.125 9.42188 22.1172 9.1875 22.0547 8.95312C21.9922 8.71875 21.8516 8.52344 21.6328 8.36719C21.4297 8.19531 21.1875 8.10938 20.9062 8.10938Z" fill="white"/>
</svg>
