<svg width="30" height="30" viewBox="0 0 30 30" fill="none" xmlns="http://www.w3.org/2000/svg">
<path d="M15.4688 4.33594C15.6562 5.13281 15.875 5.89844 16.125 6.63281C16.3906 7.35156 16.6406 7.95313 16.875 8.4375C17.125 8.92188 17.375 9.40625 17.625 9.89062C17.8906 10.3594 18.1094 10.7969 18.2812 11.2031C18.4688 11.6094 18.6172 12.0391 18.7266 12.4922C18.8359 12.9297 18.8828 13.4219 18.8672 13.9688C18.8672 14.5 18.7891 15.0859 18.6328 15.7266C18.4922 16.3203 18.1719 16.8047 17.6719 17.1797C17.1875 17.5547 16.625 17.7891 15.9844 17.8828C15.3438 17.9609 14.6953 17.9531 14.0391 17.8594C13.3984 17.7656 12.8203 17.5625 12.3047 17.25C11.7891 16.9375 11.4453 16.5547 11.2734 16.1016C11.0234 15.4141 10.8828 14.7812 10.8516 14.2031C10.8359 13.625 10.9141 13.1094 11.0859 12.6562C11.2734 12.1875 11.5078 11.7422 11.7891 11.3203C12.0859 10.8984 12.4141 10.4531 12.7734 9.98438C13.1484 9.5 13.5078 9.00781 13.8516 8.50781C14.1953 7.99219 14.5156 7.375 14.8125 6.65625C15.1094 5.92187 15.3281 5.14844 15.4688 4.33594ZM11.6719 24.6328C11.1094 24.6016 10.7109 24.1719 10.4766 23.3438C10.2422 22.5 10.1094 21.25 10.0781 19.5938C9.26562 19.0469 8.64062 18.4062 8.20312 17.6719C7.76562 16.9375 7.52344 16.2266 7.47656 15.5391C7.42969 14.8359 7.48438 14.1484 7.64062 13.4766C7.79688 12.8047 8.01562 12.2344 8.29688 11.7656C8.59375 11.2812 8.89844 10.9297 9.21094 10.7109C9.44531 10.5391 9.61719 9.97656 9.72656 9.02344C9.83594 8.05469 9.97656 7.44531 10.1484 7.19531C10.3672 7.60156 10.4766 8.35156 10.4766 9.44531C10.4922 10.5391 10.3906 11.2422 10.1719 11.5547C9.76562 12.1797 9.46094 12.7812 9.25781 13.3594C9.07031 13.9375 8.96875 14.4453 8.95312 14.8828C8.95312 15.3047 9.02344 15.7188 9.16406 16.125C9.32031 16.5156 9.49219 16.8438 9.67969 17.1094C9.88281 17.375 10.125 17.625 10.4062 17.8594C10.6875 18.0938 10.9297 18.2734 11.1328 18.3984C11.3516 18.5234 11.5625 18.6328 11.7656 18.7266C11.5469 20.9922 11.5156 22.9609 11.6719 24.6328ZM16.9922 24.8672C17.2266 23.1641 17.2344 21.2812 17.0156 19.2188C17.2812 19.125 17.4688 19.0625 17.5781 19.0312C17.6875 18.9844 17.8984 18.8906 18.2109 18.75C18.5391 18.6094 18.7891 18.4844 18.9609 18.375C19.1328 18.2656 19.3594 18.1016 19.6406 17.8828C19.9219 17.6641 20.1328 17.4453 20.2734 17.2266C20.4141 16.9922 20.5547 16.7109 20.6953 16.3828C20.8516 16.0547 20.9375 15.7109 20.9531 15.3516C20.9688 14.9922 20.9453 14.5781 20.8828 14.1094C20.8203 13.625 20.6875 13.1172 20.4844 12.5859C20.3438 12.2578 20.2812 11.4844 20.2969 10.2656C20.3125 9.04688 20.4219 8.25 20.625 7.875C20.9219 8.14062 21.1328 8.53125 21.2578 9.04688C21.3828 9.5625 21.4688 10.0781 21.5156 10.5938C21.5781 11.1094 21.6562 11.4531 21.75 11.625C22 12.0469 22.1953 12.5391 22.3359 13.1016C22.4922 13.6641 22.5547 14.2969 22.5234 15C22.4922 15.6875 22.3594 16.3594 22.125 17.0156C21.9062 17.6562 21.5 18.2812 20.9062 18.8906C20.3125 19.5 19.5625 19.9922 18.6562 20.3672C18.5938 21.7578 18.4531 22.7891 18.2344 23.4609C18.0312 24.1328 17.6172 24.6016 16.9922 24.8672Z" fill="white"/>
</svg>
