<svg width="30" height="30" viewBox="0 0 30 30" fill="none" xmlns="http://www.w3.org/2000/svg">
<path d="M19.7578 4.24219C19.5078 4.94531 19.375 5.60938 19.3594 6.23438C19.3594 6.84375 19.4531 7.39063 19.6406 7.875C19.8438 8.34375 20.0859 8.80469 20.3672 9.25781C20.6484 9.69531 20.9531 10.1406 21.2812 10.5938C21.625 11.0312 21.9375 11.4844 22.2188 11.9531C22.5156 12.4062 22.7578 12.9453 22.9453 13.5703C23.1484 14.1797 23.2422 14.8281 23.2266 15.5156C23.2266 16.9062 22.875 18.2578 22.1719 19.5703C21.4844 20.8828 20.7422 21.875 19.9453 22.5469C19.4453 22.9688 18.9531 23.0312 18.4688 22.7344C18.0312 22.4688 17.8828 22.0859 18.0234 21.5859C18.1328 21.2109 18.4219 20.8672 18.8906 20.5547C19.5469 20.1016 20.1328 19.3672 20.6484 18.3516C21.1797 17.3359 21.4453 16.3594 21.4453 15.4219C21.4453 14.7344 21.3359 14.0781 21.1172 13.4531C20.8984 12.8281 20.6328 12.3047 20.3203 11.8828C20.0078 11.4453 19.6797 11.0156 19.3359 10.5938C18.9922 10.1562 18.7109 9.73438 18.4922 9.32812C18.2734 8.90625 18.1328 8.46094 18.0703 7.99219C18.0234 7.50781 18.1328 6.95312 18.3984 6.32812C18.6797 5.70313 19.1328 5.00781 19.7578 4.24219ZM15.9141 16.5938C16.2109 16.2969 16.4453 15.9297 16.6172 15.4922C16.7891 15.0391 16.8984 14.6172 16.9453 14.2266C17.0078 13.8203 17.0234 13.3203 16.9922 12.7266C16.9609 12.1328 16.9219 11.6719 16.875 11.3438C16.8438 11 16.7812 10.5391 16.6875 9.96094C16.6719 9.82031 16.6562 9.71875 16.6406 9.65625C17.2031 10.0156 17.6953 10.5625 18.1172 11.2969C18.5391 12.0312 18.8359 12.8203 19.0078 13.6641C19.1953 14.5078 19.1953 15.3906 19.0078 16.3125C18.8359 17.2188 18.4609 17.9922 17.8828 18.6328C17.3828 19.1953 16.8828 19.375 16.3828 19.1719C15.8984 18.9688 15.6172 18.5938 15.5391 18.0469C15.4609 17.5 15.5859 17.0156 15.9141 16.5938ZM8.71875 9.96094C8.5625 11.2578 8.61719 12.6016 8.88281 13.9922C9.16406 15.3672 9.66406 16.3516 10.3828 16.9453C9.25781 17.0703 8.4375 17.0078 7.92188 16.7578C7.73438 18.7734 8.25 20.2266 9.46875 21.1172C10.3594 21.7578 11.3281 21.9219 12.375 21.6094C13.3594 21.3125 13.9922 20.6953 14.2734 19.7578C14.3047 19.6641 14.3281 19.5703 14.3438 19.4766C14.4844 19.9297 14.7422 20.3047 15.1172 20.6016C15.4922 20.8984 15.9375 21.0391 16.4531 21.0234C12.5312 23.6172 9.59375 23.5781 7.64062 20.9062C7.10938 20.1875 6.82812 19.1094 6.79688 17.6719C6.78125 16.2188 6.95312 14.7891 7.3125 13.3828C7.6875 11.9609 8.15625 10.8203 8.71875 9.96094ZM12.2344 19.2188C11.5938 19.5625 10.9844 20.0078 10.4062 20.5547C9.82812 21.1016 9.33594 21.6719 8.92969 22.2656C8.53906 22.8438 8.21875 23.3516 7.96875 23.7891C7.73438 24.2266 7.53906 24.6328 7.38281 25.0078C7.32031 25.1797 7.1875 25.2266 6.98438 25.1484C6.79688 25.0859 6.72656 24.9609 6.77344 24.7734C6.83594 24.4922 6.96094 24.1328 7.14844 23.6953C7.33594 23.2422 7.60156 22.7422 7.94531 22.1953C8.28906 21.6328 8.66406 21.125 9.07031 20.6719C9.47656 20.2031 9.96094 19.8281 10.5234 19.5469C11.0859 19.25 11.6562 19.1406 12.2344 19.2188Z" fill="white"/>
</svg>
