<svg width="30" height="31" viewBox="0 0 30 31" fill="none" xmlns="http://www.w3.org/2000/svg">
<path d="M4.88644 8.0193C5.88097 4.18327 6.37823 2.26525 7.83935 1.21046C9.30048 0.155664 11.2775 0.287467 15.2316 0.551072L19.8483 0.858854C21.8722 0.993779 22.8841 1.06124 23.6207 1.65298C24.3573 2.24471 24.6413 3.21833 25.2092 5.16556L27.1319 11.7577C29.3801 19.4656 30.5041 23.3196 28.5872 26.0677C26.6703 28.8158 22.6652 29.0921 14.6551 29.6445L10.0822 29.9598C5.02561 30.3086 2.4973 30.4829 1.18854 28.9068C-0.120224 27.3307 0.515791 24.8775 1.78782 19.9711L4.88644 8.0193Z" fill="white"/>
</svg>
