<svg width="30" height="30" viewBox="0 0 30 30" fill="none" xmlns="http://www.w3.org/2000/svg">
<path d="M10.9336 2.69531C10.0742 5.17969 10.0508 7.24219 10.8633 8.88281C11.3633 9.92969 12.0586 10.5156 12.9492 10.6406C13.8867 10.7812 14.668 10.3359 15.293 9.30469C16.1836 7.85156 16.4258 5.64844 16.0195 2.69531C17.2852 3.16406 18.3789 3.85937 19.3008 4.78125C20.2227 5.70313 20.9102 6.71094 21.3633 7.80469C21.8164 8.89844 22.0898 10.0703 22.1836 11.3203C22.2773 12.5547 22.1758 13.7344 21.8789 14.8594C21.5977 15.9844 21.1289 17.0391 20.4727 18.0234C19.832 19.0078 19.043 19.7891 18.1055 20.3672C17.3711 20.8203 16.582 21.1406 15.7383 21.3281C14.8945 21.5 14.1211 21.5859 13.418 21.5859C12.7148 21.5703 12.0273 21.5547 11.3555 21.5391C10.6992 21.5234 10.0898 21.5938 9.52734 21.75C8.98047 21.8906 8.53516 22.1641 8.19141 22.5703C7.94141 22.8828 7.87891 23.3281 8.00391 23.9062C8.26953 25.0312 8.12109 25.7188 7.55859 25.9688C7.13672 26.1406 6.73047 26.0156 6.33984 25.5938C5.76172 24.9844 5.66797 24.1875 6.05859 23.2031C6.18359 22.9219 6.33984 22.6406 6.52734 22.3594C7.08984 21.5312 7.69922 20.9375 8.35547 20.5781C9.01172 20.2031 9.68359 20.0156 10.3711 20.0156C11.0742 20 11.7695 20.0234 12.457 20.0859C13.1602 20.1328 13.9648 20.0938 14.8711 19.9688C15.7773 19.8438 16.6445 19.5469 17.4727 19.0781C18.3008 18.625 18.9727 17.8594 19.4883 16.7812C20.0195 15.6875 20.332 14.5391 20.4258 13.3359C20.5195 12.1328 20.3477 10.9453 19.9102 9.77344C19.4883 8.60156 18.8164 7.71875 17.8945 7.125C17.8633 8.96875 17.3945 10.8281 16.4883 12.7031C15.582 14.5625 14.3398 16.1562 12.7617 17.4844C11.6836 16.9219 10.7773 15.9922 10.043 14.6953C9.32422 13.3984 8.85547 12.0312 8.63672 10.5938C8.43359 9.14062 8.51953 7.67969 8.89453 6.21094C9.26953 4.74219 9.94922 3.57031 10.9336 2.69531ZM20.6367 7.24219C20.668 7.22656 20.7383 7.17969 20.8477 7.10156C20.957 7.00781 21.0273 6.95312 21.0586 6.9375C21.0898 6.90625 21.1523 6.85156 21.2461 6.77344C21.3555 6.69531 21.4258 6.64063 21.457 6.60938C21.5039 6.5625 21.5664 6.5 21.6445 6.42188C21.7383 6.34375 21.8086 6.27344 21.8555 6.21094C21.918 6.13281 21.9883 6.05469 22.0664 5.97656C22.1445 5.88281 22.2148 5.78906 22.2773 5.69531C22.3555 5.58594 22.4336 5.47656 22.5117 5.36719C22.793 6.86719 22.4883 8.11719 21.5977 9.11719L21.9023 10.4062C22.668 10.5312 23.418 10.4453 24.1523 10.1484C23.4492 11.3828 22.6914 12.1641 21.8789 12.4922L21.6914 13.7109C22.207 14.6641 22.9648 15.2969 23.9648 15.6094C23.0117 16.0781 22.0195 16.1172 20.9883 15.7266L20.2852 17.8828C20.4258 18.2109 20.6445 18.5234 20.9414 18.8203C21.2383 19.1172 21.5742 19.3281 21.9492 19.4531C21.4492 19.6406 20.957 19.7188 20.4727 19.6875C20.0039 19.6406 19.582 19.4844 19.207 19.2188L17.6133 20.5078C17.5039 21.1328 17.5664 21.7344 17.8008 22.3125C16.832 22.0938 16.3008 21.5234 16.207 20.6016L14.2148 21.2578C13.8555 21.8828 13.7539 22.5469 13.9102 23.25C13.207 22.8906 12.8086 22.2656 12.7148 21.375L10.582 21.4219C10.3789 21.6562 10.207 21.9609 10.0664 22.3359C9.92578 22.6953 9.86328 23.0234 9.87891 23.3203C9.55078 22.9453 9.33984 22.3672 9.24609 21.5859L9.66797 20.8125C10.2461 20.7031 11.1211 20.625 12.293 20.5781C13.4805 20.5156 14.332 20.4219 14.8477 20.2969C16.0977 20 17.3711 19.5234 18.668 18.8672L21.0117 12.9609L20.6367 7.24219Z" fill="white"/>
</svg>
