<svg width="30" height="30" viewBox="0 0 30 30" fill="none" xmlns="http://www.w3.org/2000/svg">
<path d="M20.4258 21.6328C19.9727 21.8203 19.2695 22.1875 18.3164 22.7344C17.3633 23.2812 16.3164 23.8203 15.1758 24.3516C14.0508 24.8984 12.9023 25.3281 11.7305 25.6406C11.8398 24.8125 12.0742 23.8203 12.4336 22.6641C12.8086 21.4922 13.168 20.4141 13.5117 19.4297C13.8711 18.4297 14.1914 17.4375 14.4727 16.4531C14.7539 15.4688 14.8867 14.5859 14.8711 13.8047C14.8711 13.0234 14.6836 12.4219 14.3086 12C14.9023 11.1094 16.0586 10.3281 17.7773 9.65625C17.7617 10.1094 17.6523 10.5156 17.4492 10.875C17.2617 11.2344 17.0742 11.5781 16.8867 11.9062C16.6992 12.2188 16.5977 12.5547 16.582 12.9141C16.5508 13.9766 16.3555 15.1328 15.9961 16.3828C15.6367 17.6328 15.2227 18.9062 14.7539 20.2031C14.2852 21.4844 13.9727 22.5078 13.8164 23.2734C14.6133 23.0391 15.6445 22.5234 16.9102 21.7266C18.1758 20.9297 19.0664 20.4297 19.582 20.2266C19.6602 19.5703 19.8086 18.9844 20.0273 18.4688C20.2461 17.9375 20.5039 17.5391 20.8008 17.2734C21.1133 17.0078 21.4336 16.8594 21.7617 16.8281C22.1055 16.7969 22.4492 16.9531 22.793 17.2969C23.1367 17.6406 23.4414 18.1641 23.707 18.8672C23.8789 19.3516 23.9805 19.7812 24.0117 20.1562C24.043 20.5156 24.0195 20.8047 23.9414 21.0234C23.8789 21.2422 23.7383 21.4141 23.5195 21.5391C23.3008 21.6641 23.0977 21.75 22.9102 21.7969C22.7227 21.8438 22.4648 21.8594 22.1367 21.8438C21.8086 21.8281 21.5586 21.8125 21.3867 21.7969C21.2148 21.7656 20.9727 21.7266 20.6602 21.6797C20.5508 21.6641 20.4727 21.6484 20.4258 21.6328ZM10.0195 6.84375C10.4883 6.07813 11.0664 5.44531 11.7539 4.94531C12.4414 4.44531 13.2695 3.96875 14.2383 3.51562C14.1914 3.95312 14.082 4.34375 13.9102 4.6875C13.7383 5.03125 13.543 5.3125 13.3242 5.53125C13.1211 5.73437 12.918 5.9375 12.7148 6.14062C12.5273 6.32812 12.3633 6.5625 12.2227 6.84375C12.082 7.10938 12.0117 7.42187 12.0117 7.78125C11.9961 8.84375 11.8398 9.95312 11.543 11.1094C11.2617 12.2656 10.9727 13.1953 10.6758 13.8984C10.3945 14.5859 9.98828 15.4844 9.45703 16.5938C8.92578 17.7031 8.58984 18.4297 8.44922 18.7734C9.57422 18.5078 10.6523 18.1172 11.6836 17.6016C12.7305 17.0703 13.6445 16.5 14.4258 15.8906C15.207 15.2656 15.9258 14.6562 16.582 14.0625C17.2383 13.4688 17.8867 12.8984 18.5273 12.3516C19.168 11.7891 19.7227 11.3828 20.1914 11.1328C20.0977 9.82031 20.3164 9.00781 20.8477 8.69531C21.3945 8.38281 22.0508 8.76562 22.8164 9.84375C23.1602 10.4062 23.332 10.9141 23.332 11.3672C23.3477 11.8047 23.1211 12.1328 22.6523 12.3516C22.1992 12.5703 21.5742 12.6172 20.7773 12.4922C20.2148 12.8984 19.5195 13.4844 18.6914 14.25C17.8633 15 17.0898 15.6875 16.3711 16.3125C15.6523 16.9375 14.8008 17.5781 13.8164 18.2344C12.832 18.875 11.6758 19.4219 10.3477 19.875C9.01953 20.3125 7.55859 20.6016 5.96484 20.7422C6.13672 20.1641 6.37891 19.5156 6.69141 18.7969C7.01953 18.0781 7.34766 17.4062 7.67578 16.7812C8.00391 16.1406 8.33984 15.4688 8.68359 14.7656C9.04297 14.0625 9.34766 13.3828 9.59766 12.7266C9.86328 12.0547 10.0742 11.3906 10.2305 10.7344C10.3867 10.0625 10.4492 9.39844 10.418 8.74219C10.3867 8.07031 10.2539 7.4375 10.0195 6.84375Z" fill="white"/>
</svg>
