<svg width="30" height="30" viewBox="0 0 30 30" fill="none" xmlns="http://www.w3.org/2000/svg">
<path d="M10.5469 13.4297C11.4531 13.5547 12.1953 13.8438 12.7734 14.2969C13.3516 14.7344 13.7266 15.2422 13.8984 15.8203C14.0703 16.3984 14.0938 17.0078 13.9688 17.6484C13.8594 18.2891 13.6172 18.875 13.2422 19.4062C12.8672 19.9375 12.3594 20.3672 11.7188 20.6953C11.0938 21.0078 10.4062 21.1484 9.65625 21.1172C8.67188 21.0703 7.875 20.4609 7.26562 19.2891C6.65625 18.1328 6.48438 16.9531 6.75 15.75C7.04688 14.4688 7.80469 13.7031 9.02344 13.4531C9.47656 13.3594 9.98438 13.3516 10.5469 13.4297ZM9.96094 19.3594C10.3672 19.4375 10.7969 19.375 11.25 19.1719C11.7188 18.9688 12.0938 18.6875 12.375 18.3281C12.6562 17.9688 12.8359 17.5859 12.9141 17.1797C12.9922 16.7578 12.8281 16.3516 12.4219 15.9609C12.0312 15.5703 11.4141 15.2656 10.5703 15.0469C9.36719 14.75 8.50781 14.9922 7.99219 15.7734C7.57031 16.3984 7.53906 17.0938 7.89844 17.8594C8.27344 18.6719 8.96094 19.1719 9.96094 19.3594ZM16.1484 23.4609C16.1484 23.2422 16.4297 22.9922 16.9922 22.7109C17.5703 22.4141 18.1719 22.1016 18.7969 21.7734C19.4375 21.4453 19.8125 21.1328 19.9219 20.8359C20.0469 20.5234 20.0938 20.0469 20.0625 19.4062C20.0469 18.75 19.9922 17.9297 19.8984 16.9453C19.8047 15.9453 19.7344 14.6562 19.6875 13.0781C19.6406 11.4844 19.6484 9.59375 19.7109 7.40625L22.1484 8.20312C21.9609 9.125 21.8516 10.4609 21.8203 12.2109C21.8047 13.9609 21.8359 15.6094 21.9141 17.1562C21.9922 18.6875 22.0469 20.1406 22.0781 21.5156C22.1094 22.8906 22.0781 23.6641 21.9844 23.8359C21.9375 23.9297 21.4297 24.0156 20.4609 24.0938C19.5078 24.1875 18.5469 24.1875 17.5781 24.0938C16.625 24.0156 16.1484 23.8047 16.1484 23.4609ZM15.3047 5.32031C15.3984 5.17969 15.5781 5.10156 15.8438 5.08594C16.1094 5.07031 16.4297 5.10156 16.8047 5.17969C17.1953 5.25781 17.5859 5.34375 17.9766 5.4375C18.3672 5.53125 18.7734 5.63281 19.1953 5.74219C19.6328 5.83594 19.9844 5.89063 20.25 5.90625C20.5156 5.92187 20.8203 5.89063 21.1641 5.8125C21.5078 5.73437 21.7891 5.65625 22.0078 5.57812C22.2422 5.5 22.4766 5.45312 22.7109 5.4375C22.9453 5.40625 23.0859 5.45312 23.1328 5.57812C23.2891 5.84375 23.3594 6.54688 23.3438 7.6875C23.3438 8.82812 23.2812 9.51562 23.1562 9.75C23.0469 10.0156 22.5234 10.0234 21.5859 9.77344C20.6641 9.50781 19.7266 9.07812 18.7734 8.48438C18.5859 8.35938 18.3672 8.22656 18.1172 8.08594C17.8672 7.92969 17.6406 7.79687 17.4375 7.6875C17.25 7.57813 17.0469 7.46094 16.8281 7.33594C16.6094 7.21094 16.4219 7.10156 16.2656 7.00781C16.1094 6.89844 15.9531 6.78906 15.7969 6.67969C15.6562 6.55469 15.5391 6.4375 15.4453 6.32812C15.3672 6.21875 15.2969 6.10937 15.2344 6C15.1875 5.89063 15.1641 5.78125 15.1641 5.67188C15.1797 5.54687 15.2266 5.42969 15.3047 5.32031ZM19.8516 10.6406L21.1172 11.7656C20.0078 13 18.8047 14.0391 17.5078 14.8828C16.2266 15.7109 14.7422 16.2656 13.0547 16.5469L12.75 14.8594C14.2344 14.6094 15.5312 14.125 16.6406 13.4062C17.7656 12.6875 18.8359 11.7656 19.8516 10.6406ZM19.875 14.5781L21.3047 15.4453C20.8359 16.1953 20.2578 16.8281 19.5703 17.3438C18.8828 17.8594 18.1719 18.2266 17.4375 18.4453C16.7188 18.6641 15.9688 18.8047 15.1875 18.8672C14.4219 18.9297 13.7109 18.875 13.0547 18.7031L13.3594 17.0625C14.5625 17.2969 15.7734 17.2188 16.9922 16.8281C18.2266 16.4375 19.1875 15.6875 19.875 14.5781Z" fill="white"/>
</svg>
